<!--?xml version="1.0" encoding="utf-8"?-->
<svg id="svg" version="1.1" style="display: block;" viewBox="0 0 128 126" xmlns="http://www.w3.org/2000/svg" width="128" height="126">
  <path d="M0,0 L128,0 L128,126 L0,126 Z " transform="translate(0,0)" style="fill: rgb(231, 231, 231);" class="svg-elem-1"></path>
  <path d="M0,0 L39,0 L39,1 L38,1 L38,2 L37,2 L37,9 L36,9 L36,12 L35,12 L35,22 L36,22 L36,23 L37,23 L37,24 L36,24 L36,25 L35,25 L35,26 L34,26 L34,27 L30,27 L30,28 L29,28 L29,33 L30,33 L30,34 L31,34 L31,35 L34,35 L34,34 L36,34 L36,33 L37,33 L37,32 L38,32 L38,31 L39,31 L39,30 L40,30 L40,29 L41,29 L41,28 L42,28 L42,26 L55,26 L55,42 L54,42 L54,43 L53,43 L53,44 L51,44 L51,45 L50,45 L50,46 L49,46 L49,47 L48,47 L48,48 L47,48 L47,49 L46,49 L46,50 L45,50 L45,51 L44,51 L44,53 L43,53 L43,55 L42,55 L42,56 L38,56 L38,55 L36,55 L36,53 L35,53 L35,51 L34,51 L34,48 L33,48 L33,47 L32,47 L32,46 L31,46 L31,45 L27,45 L27,46 L26,46 L26,47 L25,47 L25,48 L24,48 L24,50 L23,50 L23,64 L22,64 L22,65 L21,65 L21,68 L20,68 L20,74 L18,74 L18,73 L17,73 L17,72 L16,72 L16,66 L17,66 L17,60 L16,60 L16,58 L15,58 L15,57 L14,57 L14,56 L13,56 L13,55 L12,55 L12,54 L11,54 L11,53 L10,53 L10,52 L9,52 L9,51 L8,51 L8,46 L9,46 L9,45 L10,45 L10,44 L12,44 L12,43 L14,43 L14,42 L15,42 L15,39 L16,39 L16,28 L17,28 L17,27 L18,27 L18,26 L19,26 L19,25 L20,25 L20,17 L19,17 L19,16 L18,16 L18,15 L6,15 L6,16 L5,16 L5,14 L4,14 L4,12 L3,12 L3,11 L2,11 L2,10 L1,10 L1,6 L0,6 Z " transform="translate(48,0)" style="fill: rgb(255, 255, 255);" class="svg-elem-2"></path>
  <path d="M0,0 L4,0 L4,1 L6,1 L6,7 L5,7 L5,13 L4,13 L4,19 L5,19 L5,20 L6,20 L6,22 L7,22 L7,25 L6,25 L6,26 L4,26 L4,31 L3,31 L3,33 L2,33 L2,34 L1,34 L1,43 L2,43 L2,45 L3,45 L3,46 L7,46 L7,44 L8,44 L8,43 L12,43 L12,44 L13,44 L13,45 L21,45 L21,44 L22,44 L22,43 L23,43 L23,42 L24,42 L24,40 L25,40 L25,29 L26,29 L26,28 L29,28 L29,29 L31,29 L31,30 L32,30 L32,31 L33,31 L33,33 L34,33 L34,34 L35,34 L35,35 L37,35 L37,36 L41,36 L41,37 L43,37 L43,38 L44,38 L44,39 L45,39 L45,40 L46,40 L46,41 L47,41 L47,44 L48,44 L48,59 L5,59 L5,58 L4,58 L4,56 L3,56 L3,54 L2,54 L2,53 L1,53 L1,52 L0,52 L0,50 L-1,50 L-1,49 L-2,49 L-2,48 L-4,48 L-4,47 L-5,47 L-5,46 L-6,46 L-6,45 L-7,45 L-7,44 L-8,44 L-8,38 L-9,38 L-9,37 L-16,37 L-16,36 L-17,36 L-17,34 L-18,34 L-18,26 L-17,26 L-17,25 L-16,25 L-16,24 L-15,24 L-15,23 L-14,23 L-14,21 L-13,21 L-13,18 L-12,18 L-12,17 L-11,17 L-11,16 L-9,16 L-9,13 L-8,13 L-8,10 L-6,10 L-6,9 L-4,9 L-4,7 L-3,7 L-3,6 L-2,6 L-2,4 L-1,4 L-1,1 L0,1 Z " transform="translate(53,67)" style="fill: rgb(255, 255, 255);" class="svg-elem-3"></path>
  <path d="M0,0 L2,0 L2,1 L3,1 L3,5 L4,5 L4,6 L5,6 L5,8 L6,8 L6,10 L7,10 L7,14 L6,14 L6,15 L5,15 L5,17 L4,17 L4,25 L5,25 L5,26 L6,26 L6,31 L7,31 L7,33 L8,33 L8,34 L13,34 L13,35 L15,35 L15,36 L16,36 L16,38 L17,38 L17,40 L18,40 L18,42 L19,42 L19,44 L20,44 L20,45 L21,45 L21,46 L22,46 L22,47 L23,47 L23,48 L24,48 L24,52 L18,52 L18,53 L16,53 L16,54 L14,54 L14,55 L12,55 L12,56 L11,56 L11,60 L10,60 L10,62 L9,62 L9,63 L8,63 L8,65 L5,65 L5,64 L3,64 L3,62 L2,62 L2,60 L1,60 L1,58 L0,58 Z " transform="translate(0,18)" style="fill: rgb(255, 255, 255);" class="svg-elem-4"></path>
  <path d="M0,0 L3,0 L3,1 L4,1 L4,3 L5,3 L5,64 L3,64 L3,63 L1,63 L1,62 L0,62 L0,60 L-1,60 L-1,57 L-2,57 L-2,50 L-3,50 L-3,46 L-2,46 L-2,45 L-1,45 L-1,44 L0,44 L0,41 L-1,41 L-1,39 L-2,39 L-2,38 L-3,38 L-3,35 L-4,35 L-4,32 L-3,32 L-3,26 L-4,26 L-4,23 L-5,23 L-5,22 L-6,22 L-6,21 L-7,21 L-7,20 L-8,20 L-8,19 L-9,19 L-9,17 L-10,17 L-10,11 L-9,11 L-9,9 L-8,9 L-8,7 L-7,7 L-7,6 L-6,6 L-6,5 L-4,5 L-4,4 L-3,4 L-3,3 L-2,3 L-2,2 L-1,2 L-1,1 L0,1 Z " transform="translate(123,39)" style="fill: rgb(255, 255, 255);" class="svg-elem-5"></path>
  <path d="M0,0 L11,0 L11,1 L10,1 L10,7 L9,7 L9,12 L10,12 L10,15 L11,15 L11,20 L10,20 L10,23 L9,23 L9,26 L8,26 L8,28 L7,28 L7,29 L6,29 L6,30 L5,30 L5,31 L4,31 L4,32 L3,32 L3,34 L2,34 L2,35 L1,35 L1,36 L-1,36 L-1,34 L-2,34 L-2,32 L-3,32 L-3,30 L-4,30 L-4,24 L-6,24 L-6,23 L-8,23 L-8,19 L-7,19 L-7,18 L-6,18 L-6,17 L-5,17 L-5,16 L-4,16 L-4,15 L-3,15 L-3,14 L-1,14 L-1,13 L0,13 L0,12 L1,12 L1,8 L0,8 L0,7 L-1,7 L-1,6 L-2,6 L-2,4 L-1,4 L-1,2 L0,2 Z " transform="translate(27,0)" style="fill: rgb(255, 255, 255);" class="svg-elem-6"></path>
  <path d="M0,0 L1,0 L1,1 L2,1 L2,2 L3,2 L3,4 L4,4 L4,13 L3,13 L3,19 L4,19 L4,20 L7,20 L7,19 L8,19 L8,17 L9,17 L9,13 L10,13 L10,9 L11,9 L11,6 L12,6 L12,5 L13,5 L13,8 L14,8 L14,9 L15,9 L15,14 L14,14 L14,16 L13,16 L13,17 L12,17 L12,21 L11,21 L11,37 L0,37 Z " transform="translate(0,89)" style="fill: rgb(255, 255, 255);" class="svg-elem-7"></path>
  <path d="M0,0 L19,0 L19,18 L17,18 L17,16 L16,16 L16,15 L15,15 L15,13 L14,13 L14,9 L13,9 L13,8 L11,8 L11,10 L9,10 L9,11 L8,11 L8,12 L4,12 L4,11 L3,11 L3,10 L2,10 L2,9 L1,9 L1,7 L0,7 Z " transform="translate(109,0)" style="fill: rgb(255, 255, 255);" class="svg-elem-8"></path>
  <path d="M0,0 L3,0 L3,1 L4,1 L4,2 L5,2 L5,3 L7,3 L7,4 L8,4 L8,5 L9,5 L9,18 L8,18 L8,20 L7,20 L7,21 L5,21 L5,22 L1,22 L1,21 L-2,21 L-2,20 L-3,20 L-3,19 L-4,19 L-4,14 L-3,14 L-3,11 L-2,11 L-2,6 L-1,6 L-1,5 L0,5 Z " transform="translate(92,66)" style="fill: rgb(255, 255, 255);" class="svg-elem-9"></path>
  <path d="M0,0 L3,0 L3,1 L4,1 L4,3 L5,3 L5,9 L4,9 L4,12 L3,12 L3,14 L2,14 L2,15 L1,15 L1,17 L0,17 L0,18 L-2,18 L-2,19 L-3,19 L-3,20 L-7,20 L-7,19 L-8,19 L-8,17 L-9,17 L-9,13 L-8,13 L-8,12 L-7,12 L-7,7 L-6,7 L-6,6 L-5,6 L-5,4 L-4,4 L-4,3 L-3,3 L-3,2 L-2,2 L-2,1 L0,1 Z " transform="translate(44,36)" style="fill: rgb(255, 255, 255);" class="svg-elem-10"></path>
  <path d="M0,0 L13,0 L13,2 L14,2 L14,5 L15,5 L15,11 L0,11 L0,7 L-1,7 L-1,1 L0,1 Z " transform="translate(26,115)" style="fill: rgb(255, 255, 255);" class="svg-elem-11"></path>
  <path d="M0,0 L2,0 L2,1 L4,1 L4,2 L5,2 L5,3 L6,3 L6,6 L7,6 L7,8 L8,8 L8,11 L9,11 L9,12 L10,12 L10,13 L11,13 L11,14 L13,14 L13,17 L0,17 L0,16 L-1,16 L-1,15 L-2,15 L-2,4 L-1,4 L-1,2 L0,2 Z " transform="translate(115,109)" style="fill: rgb(255, 255, 255);" class="svg-elem-12"></path>
  <path d="M0,0 L11,0 L11,2 L12,2 L12,3 L13,3 L13,8 L12,8 L12,9 L11,9 L11,10 L10,10 L10,11 L4,11 L4,10 L2,10 L2,9 L0,9 Z " transform="translate(0,0)" style="fill: rgb(255, 255, 255);" class="svg-elem-13"></path>
  <path d="M0,0 L4,0 L4,1 L5,1 L5,2 L6,2 L6,3 L7,3 L7,4 L8,4 L8,5 L9,5 L9,7 L-3,7 L-3,6 L-2,6 L-2,4 L-1,4 L-1,2 L0,2 Z " transform="translate(70,119)" style="fill: rgb(231, 230, 230);" class="svg-elem-14"></path>
  <path d="M0,0 L2,0 L2,13 L0,13 L0,12 L-1,12 L-1,11 L-2,11 L-2,10 L-3,10 L-3,5 L-2,5 L-2,2 L-1,2 L-1,1 L0,1 Z " transform="translate(126,55)" style="fill: rgb(230, 230, 230);" class="svg-elem-15"></path>
  <path d="M0,0 L3,0 L3,1 L4,1 L4,6 L5,6 L5,9 L1,9 L1,8 L0,8 L0,6 L-1,6 L-1,1 L0,1 Z " transform="translate(74,6)" style="fill: rgb(231, 230, 230);" class="svg-elem-16"></path>
  <path d="M0,0 L6,0 L6,1 L5,1 L5,2 L4,2 L4,3 L0,3 Z " transform="translate(70,0)" style="fill: rgb(231, 230, 230);" class="svg-elem-17"></path>
</svg>