<?xml version="1.0" encoding="UTF-8" standalone="no"?><!-- Generator: Gravit.io --><svg xmlns="http://www.w3.org/2000/svg" xmlns:xlink="http://www.w3.org/1999/xlink" style="isolation:isolate" viewBox="0 0 310 353" width="310pt" height="353pt"><defs><clipPath id="_clipPath_yGdEPufISpbAkuHYVZoywsQyP3Aknpn8"><rect width="310" height="353"/></clipPath></defs><g clip-path="url(#_clipPath_yGdEPufISpbAkuHYVZoywsQyP3Aknpn8)"><clipPath id="_clipPath_hiiuDHDjzsu6rfjKMBNXDfcigM0vt3Jg"><rect x="-24.5" y="-6" width="369" height="365" transform="matrix(1,0,0,1,0,0)" fill="rgb(255,255,255)"/></clipPath><g clip-path="url(#_clipPath_hiiuDHDjzsu6rfjKMBNXDfcigM0vt3Jg)"><g><path d=" M 200.7 7.1 C 194.2 8.3 186.6 12.2 181.3 16.9 C 178.6 19.3 176.5 21.6 176.5 22 C 176.5 22.5 177.6 24.6 179 26.6 C 183.7 33.5 181.8 44.2 174.9 48.6 C 172.7 50.1 171.7 50.2 168.2 49.3 C 165.9 48.7 163.7 48.3 163.4 48.6 C 163 48.8 162.1 52.2 161.4 56 C 159.1 68.9 163.2 82.4 176.5 106.5 C 188.7 128.5 195.3 144.7 199.1 162.5 C 200.6 169.4 202.9 197.9 202.6 207.4 C 202.3 218.8 192.1 231.9 181.3 234.5 C 177.9 235.4 177.8 234.8 180.7 230.9 C 183.9 226.6 183.6 221.4 180.2 218.4 C 176.3 215.1 173 214.4 169.9 216.5 C 167.1 218.3 166.9 222 169.5 222.7 C 170.8 223.1 170.8 223 169.5 222.1 C 168.3 221.3 168.3 220.7 169.1 219.3 C 171.5 215.4 178.5 217.2 180.6 222.2 C 181.7 224.9 181.6 225.8 179.9 228.9 C 178.8 231.1 176.5 233.3 174.1 234.4 L 170.3 236.3 L 160.1 233.1 C 141.7 227.2 128.6 228 119.8 235.4 L 115.7 239 L 112.5 236.7 C 110.7 235.5 108.1 233.1 106.8 231.4 L 104.5 228.3 L 108.2 225.8 C 114.3 221.8 118.5 216.9 121.6 210.5 C 123.2 207.2 124.5 204 124.5 203.3 C 124.5 201.6 130.4 197 135.3 194.8 C 137.6 193.8 139.5 192.4 139.5 191.9 C 139.5 190.1 133.9 185.1 130.9 184.4 C 129.3 184 124.2 179.7 118.6 174 C 108.1 163.4 103.5 160.6 92.1 158.1 C 86.8 156.9 83.1 156.7 77.5 157.2 C 67.9 158.2 62.7 156.8 57.1 151.9 C 46.4 142.4 45.7 129.1 55.7 123 C 60.2 120.3 64.1 120.5 67 123.5 C 70.1 126.5 70.2 130.4 67.3 132.4 C 66.1 133.3 65.5 134 66.1 134 C 68 134 70.5 130.4 70.5 127.7 C 70.5 126.3 69.4 123.8 68.1 122.3 C 66.1 120 64.9 119.5 61.2 119.5 C 56 119.5 52.3 121.8 48.8 127 C 42.3 136.5 50.6 153.8 63.3 157.3 L 67.6 158.4 L 61.8 161.2 C 48.8 167.4 35.9 167.1 28.4 160.3 C 20.6 153.3 21.2 141.8 29.6 137.4 C 34.3 135 39.5 137.4 40.8 142.5 C 41.2 144.3 41.3 144.2 41.4 142.2 C 41.6 138.7 37.3 135 32.9 135 C 28 135 24 138.1 21.9 143.5 C 16.3 158.2 31.8 171 50 166.7 L 53 166 L 49.6 168.9 C 47.7 170.6 42.5 173.8 38.1 176 C 24.7 182.8 13.9 182.6 7.7 175.6 C 3.8 171.1 2.9 166 5.2 161.2 C 8.6 154.3 15.8 153.1 18.9 158.8 C 19.8 160.3 20.4 161 20.5 160.4 C 20.5 159.8 19.6 158.1 18.4 156.6 C 15.8 153.3 10 153 6.2 156.1 C 3.1 158.5 1.1 164.9 2 169.3 C 4.9 182.9 19 186.7 36 178.7 C 41.5 176.1 43.3 175.5 42.5 176.8 C 40.1 180.9 38.9 181.8 36.2 181.3 C 34.4 180.9 32.8 181.4 31.5 182.5 C 28.9 184.9 27.2 191.1 28.4 194.1 C 29.1 196.1 28.8 196.8 26.4 198.2 C 22.7 200.4 21.7 204.5 23.8 208.2 C 25.3 210.9 25.3 211 23.2 212.1 C 18.6 214.6 18.2 219.4 22.1 223.4 L 24.8 226 L 22.1 228.1 C 18.5 231 18.4 237.1 22.1 240.5 L 24.6 242.9 L 22.6 244.9 C 18.4 249.1 21.1 258 26.5 258 C 28.4 258 28.5 258.2 27 261 C 26.2 262.6 25.5 265.1 25.5 266.5 C 25.5 269.6 29.6 274 32.5 274 C 34.2 274 34.4 274.3 33.5 275.9 C 32.2 278.5 32.2 282.6 33.6 285.3 C 35.1 288.1 36.4 289 39.2 289 C 41.2 289 41.3 289.2 40.3 291.5 C 38 296.5 45.2 305.2 50.3 303.5 C 51.8 303.1 52.1 303.6 52.1 306.6 C 52.1 311.1 55.5 314.4 59.7 313.8 C 62.2 313.4 62.3 313.6 61.8 316.2 C 61.4 318.4 61.9 319.6 64.9 322.6 C 68.4 326.1 69.3 326.3 73.8 324.5 C 75.2 323.9 75.5 324.3 75.5 326.8 C 75.5 332 82.6 336 85.5 332.5 C 87.4 330.2 88.5 330.7 88.5 333.9 C 88.5 335.9 89.4 337.5 91.1 338.9 C 94.3 341.4 97.2 341.6 100.3 339.4 C 102.4 338 102.7 338 105.1 340.9 C 108.3 344.8 112.2 345 115.5 341.5 C 118.3 338.5 121.5 338.2 121.5 340.9 C 121.5 344 123.6 344.6 125.7 342 C 127.7 339.6 129.2 339.9 128.1 342.5 C 126.8 346 120.6 345.6 118.7 341.8 C 118 340.2 117.6 340 117.6 341.1 C 117.5 343.6 120.8 346 124.4 346 C 126.8 346 127.8 345.4 128.7 343.5 L 129.8 341.1 L 133.2 344 C 135 345.7 137.4 347 138.5 347 C 140.8 347 143.5 344.4 143.5 342.2 C 143.5 341 144.1 341.2 146.2 343.2 C 147.8 344.6 149.7 346 150.6 346.3 C 152.8 347 156.3 344.5 156.7 341.8 C 156.9 340.7 157.8 339.2 158.8 338.6 C 160.2 337.7 160.9 337.9 162 339.3 C 163.7 341.6 167 341.1 167 338.6 C 167 337.5 167.5 336.5 168.2 336.3 C 170.2 335.6 170.7 338 169.1 340.5 C 167.1 343.5 163.1 343.8 159.5 341.3 L 157 339.6 L 158.9 341.8 C 161.6 344.9 167.8 344.8 169.9 341.8 C 170.8 340.6 171.5 338.5 171.5 337.2 C 171.5 334.8 171.6 334.8 177.8 335.7 C 205.8 339.5 235 331.6 263.3 312.7 C 289.4 295.3 306.9 270.8 308.2 250 C 308.6 243.5 308.3 241.9 306.3 238 C 302.9 231.3 298.4 228.7 291.2 229.2 C 286.3 229.6 284.9 230.1 282.2 232.8 C 279.7 235.3 279 236.8 279 240 C 279 247.4 285.1 252.4 291 249.9 C 293.7 248.8 293.8 248.6 291.8 248.3 C 289 247.8 287.1 245.5 287.9 243.5 C 288.3 242.3 289.6 242 292.7 242.2 C 296.3 242.5 297.1 242.9 297.9 245.3 C 299.1 248.6 296.9 253.2 292.5 256.7 C 288.2 260.2 286.5 260.6 286.5 258.1 C 286.5 255.5 282.8 252 280 252 C 277.8 252 275.5 253.7 275.5 255.4 C 275.5 255.9 276.1 255.6 276.8 254.5 C 278.5 252.2 282.9 253.1 284.5 256 C 286.4 259.5 284.7 262 278.9 264.6 C 275.9 265.9 273.3 267 273.1 267 C 272.9 267 272.8 265.4 272.9 263.4 C 273 260.5 272.4 259.3 270.3 257.7 C 268 256 267.2 255.8 265 256.8 C 262.5 257.9 261.7 260.4 263.4 261.4 C 263.9 261.8 264.1 261.2 263.8 260.1 C 263.2 257.7 265.8 256.7 269 258.2 C 274.6 260.7 272.7 267.2 265.9 268.9 C 263.6 269.5 260.7 270 259.5 270 C 257.6 270 257.5 269.8 258.9 268.5 C 262.7 264.6 261.2 258.9 256 257.6 C 252.1 256.6 248.4 260.6 251.4 262.4 C 251.9 262.8 252.1 262.2 251.8 261.1 C 251.1 258.5 254.2 257.6 257.1 259.5 C 260.2 261.5 260.3 265.9 257.2 268.8 C 254.5 271.3 248.6 271.7 239.1 269.9 C 227.6 267.8 227.9 269 235.1 254.3 C 249.6 225.1 251.9 201 242.9 174 C 238.4 160.4 232.7 150 216.6 125.5 C 194.4 91.8 187.8 75.6 188.7 57.4 C 189.3 46.1 192.9 37.5 200 30.5 C 214.7 15.7 236.4 19.8 245.4 38.9 C 250.3 49.5 248.3 66.1 241.2 73.9 C 236.2 79.3 227.6 81.3 221 78.6 C 214 75.6 210.9 64.7 215.8 60.2 C 218.3 57.9 222 56.9 219.7 59.2 C 216.4 62.5 220.3 68.3 224.4 66.1 C 230.3 62.9 225.4 55 218.5 56.5 C 216.9 56.9 214.4 58.6 212.9 60.3 C 210.6 63 210.3 64.1 210.7 68.7 C 211.7 80.6 222.7 87.2 235.3 83.5 C 249.2 79.3 258.2 62.1 255.4 44.8 C 252.5 26.9 237 11.5 217.6 7.4 C 210.3 5.9 207.1 5.8 200.7 7.1 Z  M 180.5 77.2 C 184.1 87.9 191.4 102.5 205.2 126.8 C 234.1 177.5 240.1 201.2 229.6 222.4 C 226.5 228.7 220.7 236.3 222 232.5 C 225.6 221.8 226.7 214.1 226.2 204 C 225.2 183.6 220.4 170.4 197 124.5 C 187.6 106 179.6 88.9 178.1 84 C 175 74.3 173.9 65 175 59.4 L 175.8 55.5 L 176.7 62 C 177.2 65.6 178.9 72.4 180.5 77.2 Z  M 93 160.5 C 105.8 163.9 116.2 171.9 120.8 182 C 124 188.9 123.8 200.7 120.3 208.2 C 113.5 222.8 97.6 231.9 78.8 232 C 75.3 232 72.5 232.4 72.5 232.9 C 72.5 235.5 89.2 234.3 97.6 231.1 C 102.4 229.2 102.6 229.2 103.5 231 C 104.9 233.6 104.9 233.6 100.3 235.5 C 87.6 240.6 70.1 243.5 67 241 C 64.2 238.7 65.6 232.7 68.6 234.6 C 69.4 235 69.3 235.5 68.4 236.2 C 67.3 237 67.3 237.1 68.5 236.7 C 71 236.1 70.2 233.5 67.5 233.5 C 65.5 233.5 64.9 234.1 64.7 236.3 C 64.5 237.9 64.9 239.8 65.6 240.6 C 66.6 241.8 65.9 242 61.2 242 C 55 242 53.2 240.6 53.7 236.3 C 53.9 234.4 54.6 233.5 55.8 233.5 C 56.7 233.5 57.4 233.9 57.3 234.5 C 57.1 235 56.7 235.4 56.3 235.2 C 55.8 235.1 55.5 235.4 55.5 236 C 55.5 237.5 58.2 237.2 58.8 235.6 C 59.1 234.8 58.7 233.6 57.9 232.9 C 55.3 230.7 53 233.1 53.1 237.9 L 53.2 242 L 49.1 241.4 C 44.4 240.7 42.3 238.6 42.7 235 C 43 232.3 45.5 231.6 46.3 233.9 C 46.6 234.7 46.3 235 45.6 234.6 C 45 234.2 44.5 234.4 44.5 235 C 44.5 236.8 47 235.6 47.3 233.7 C 47.8 231.4 44.9 230.4 42.9 232.1 C 41.8 233 41.5 234.4 41.8 236.7 C 42.4 240.4 41.9 240.6 36.9 238.5 C 33.8 237.2 33.4 236.7 33.7 233.8 C 34 230.4 36.4 229.2 37.3 231.9 C 37.6 232.7 37.3 233 36.6 232.6 C 36 232.2 35.5 232.4 35.5 232.9 C 35.5 233.5 36.2 234 37 234 C 39 234 39 230.1 37 229.4 C 34.7 228.5 32.5 230.9 32.5 234.1 C 32.5 237.5 31 237.9 29.4 234.9 C 27.9 232.1 29 218.2 31.6 207 C 34.3 195.3 41.2 181.6 47.9 174.2 C 59.5 161.7 77 156.4 93 160.5 Z  M 37.8 182.6 C 39 183.8 37.2 186 35 186 C 32.3 186 31.4 187.7 32.7 190.2 C 33.6 192.1 32.8 197 31.5 197 C 28.8 197 28.5 188.2 31 184.4 C 32.4 182.2 36.3 181.1 37.8 182.6 Z  M 30.8 200.6 C 30.5 201.4 29.4 202 28.4 202 C 25.7 202 24.7 205 26.8 206.5 C 28.9 208 29.1 211.2 27.1 210.4 C 24.8 209.5 23.2 204.5 24.4 202.1 C 26.4 198.4 32.2 197 30.8 200.6 Z  M 27.5 214.6 C 27.5 215.4 27.2 215.9 26.8 215.9 C 23.3 215.3 22.1 219.1 25.1 220.8 C 26 221.3 26.5 222.6 26.3 223.6 C 26 225.3 25.7 225.3 23.2 222.7 C 19.7 219.3 19.8 215.1 23.4 213.3 C 26.2 212 27.5 212.4 27.5 214.6 Z  M 26.5 228.9 C 26.5 230 25.6 231.2 24.5 231.5 C 21 232.6 22.1 236.7 25.7 236.1 C 26.7 236 27.9 240.9 27.1 241.7 C 26.8 242.1 25.2 241.5 23.7 240.3 C 20.1 237.6 19.5 232 22.4 229.1 C 25 226.5 26.5 226.4 26.5 228.9 Z  M 136.5 236.1 C 136.5 250.2 128.9 258 115.1 258 C 110.9 258 110.5 257.8 110.5 255.5 C 110.5 253.1 110.7 253 117.6 253 C 124.3 253 124.9 252.8 128 249.7 C 131.4 246.3 133.5 240.9 133.5 235.4 C 133.5 233.7 133.8 232 134.2 231.7 C 135.8 230 136.5 231.4 136.5 236.1 Z  M 148.7 232.6 C 150 233.4 149.6 237.7 148.1 238.9 C 146.3 240.4 141.3 239.9 140.7 238.2 C 140.5 237.6 141 237 141.9 237 C 144.1 237 143.9 233.4 141.8 232 C 140.4 231.1 140.9 231 144 231.5 C 146.2 231.9 148.3 232.4 148.7 232.6 Z  M 157.3 234.5 C 160.1 235.4 162.6 236.4 162.9 236.9 C 163.7 238.2 159.8 253.2 157.1 259.5 C 150.2 275 137.9 284.1 120.8 286.5 L 115.7 287.2 L 113.5 281.3 C 111.2 275.1 109.1 265.6 109.7 263.8 C 109.9 263.2 111.1 264.3 112.3 266.3 C 115.7 272.2 123.6 272.4 125.1 266.6 C 125.7 264.2 125.8 264.2 128.8 265.6 C 135 268.5 142 262.9 139.8 256.9 C 138.8 254.3 138.9 254 140.6 254 C 141.7 254 142.3 254.4 142 255 C 141.7 255.5 142.3 256 143.4 256 C 146.5 256 149.7 259.6 149.3 262.8 C 149.1 264.9 148.5 265.5 146.5 265.5 C 144.9 265.5 143.9 264.9 143.7 263.7 C 143.3 261.7 146.1 261.3 146.8 263.2 C 147.2 264 147.4 263.9 147.4 262.9 C 147.5 262 146.9 261 146.1 260.7 C 144.2 260 142.2 262.4 142.7 264.7 C 143.1 267 148.4 267.2 149.8 264.9 C 151.4 262.4 149.7 258 146.6 256.2 C 143.8 254.6 143.7 254.6 145.8 253.5 C 148.8 252 150.2 247.7 148.6 244.4 C 147 240.8 146.2 241.9 147.7 245.8 C 148.7 248.5 148.6 249.2 147 250.9 C 144.9 253.3 140.7 253.6 138.1 251.7 C 136.4 250.5 136.4 250.3 138.1 248.9 C 139 248.2 140 247.6 140.2 247.7 C 140.3 247.9 141 248 141.5 248 C 143.1 248 142.7 244.3 141 243.6 C 137.7 242.4 139.7 241 144.3 241.3 C 146.9 241.5 150 241.2 151.2 240.7 C 153 239.9 153.9 240.1 155.5 241.5 C 157.8 243.6 158.1 246.5 156.1 247.3 C 154.4 248 153.5 247.2 153.5 245.2 C 153.5 244 153.8 244 155 245 C 155.9 245.8 156.5 245.9 156.5 245.2 C 156.5 243.4 154.5 242.7 153 244 C 151.4 245.3 152 247.6 154.2 248.4 C 156.3 249.3 158.5 247.2 158.5 244.4 C 158.5 241.5 154.3 238.5 151.4 239.3 C 149.9 239.7 149.5 239.5 149.9 238.3 C 150.2 237.5 150.5 236 150.5 234.9 C 150.5 232.6 150.8 232.6 157.3 234.5 Z  M 108.4 236.4 C 109.3 237.4 109.2 238 108 239 C 106.8 240 106.5 240 106.5 238.6 C 106.5 237.7 105.9 237 105.1 237 C 103.2 237 102.2 238.7 103.5 239.5 C 104 239.8 104.5 240.5 104.5 241 C 104.5 242.2 95 246.5 88 248.5 C 80.1 250.7 55 251.7 46.4 250.1 C 32.7 247.7 29.5 246 29.5 241.1 L 29.5 238.3 L 37.8 240.8 C 45.2 243.1 47.8 243.4 63.5 243.4 C 82.2 243.5 87.2 242.7 99.3 237.6 C 106.2 234.7 106.9 234.6 108.4 236.4 Z  M 113.5 241.5 C 113.5 242.3 113.1 243.2 112.5 243.5 C 111.9 243.9 111.5 243 111.5 241.5 C 111.5 240 111.9 239.1 112.5 239.5 C 113.1 239.8 113.5 240.7 113.5 241.5 Z  M 172.7 240.6 L 175.9 242.2 L 172.4 244.1 C 167.5 246.7 166.8 246.5 167.3 242.5 C 167.8 238.5 168.3 238.3 172.7 240.6 Z  M 110.5 243.2 C 110.5 246.3 110.5 246.3 108.4 244.4 C 106.5 242.7 106.5 242.5 108.1 241.3 C 110.5 239.6 110.5 239.6 110.5 243.2 Z  M 28.4 247.1 C 28.5 247.5 27.6 248 26.4 248.3 C 23.8 249 24.2 252.3 27 252.9 C 30.7 253.6 31.7 257 28.2 257 C 21.7 257 19.3 250.1 24.2 245.2 C 26.7 242.7 26.9 242.7 27.6 244.5 C 28 245.6 28.4 246.8 28.4 247.1 Z  M 181.7 245.1 C 185.7 247.1 185.8 247.3 183.9 248.7 C 179.7 251.9 164.8 258.6 163.9 257.7 C 163.7 257.6 164.2 255.4 164.9 253 C 166 249.2 167 248.1 171.1 245.9 C 177.3 242.6 176.8 242.6 181.7 245.1 Z  M 104.5 247.7 L 104.5 251.3 L 102 249 L 99.4 246.6 L 101.7 245.3 C 103 244.6 104.1 244.1 104.3 244 C 104.4 244 104.5 245.7 104.5 247.7 Z  M 109.8 248.2 C 109.6 248.7 108.5 249.5 107.4 250 C 105.7 251 105.5 250.7 105.5 247.5 L 105.5 243.9 L 107.9 245.7 C 109.2 246.7 110.1 247.8 109.8 248.2 Z  M 35.2 250.9 C 34.9 251.8 34.4 253.4 34 254.5 C 33.7 255.6 34.2 255.1 35.2 253.5 L 37 250.5 L 37.3 253.8 C 37.7 257.8 37 258.8 34.7 257.4 C 33 256.3 30.4 250.1 31.1 248.8 C 31.9 247.4 35.7 249.3 35.2 250.9 Z  M 96.6 250.7 L 96.8 253.5 L 97.2 250.7 C 97.7 247.5 98.5 247.4 101.6 249.9 C 104.5 252.2 103.9 253 98.8 253.7 C 95.4 254.1 94.7 253.9 93.7 251.9 C 92.5 249.7 92.8 251.2 94.1 254.4 C 94.4 255.3 93.7 255.9 92.1 256.2 C 89 256.8 88.8 255.6 91.5 251.2 C 93.9 247.2 96.4 247 96.6 250.7 Z  M 190.8 249.9 C 192.3 250.7 193.5 251.7 193.5 252.1 C 193.5 254.4 161.7 272 157.6 272 C 157.1 272 158 269.3 159.8 266 C 162.9 260 163.2 259.9 171.3 256.6 C 175.9 254.7 181.3 252 183.3 250.6 C 185.3 249.2 187.2 248.1 187.5 248.3 C 187.8 248.4 189.2 249.2 190.8 249.9 Z  M 90.5 250.5 C 90.5 251.6 88.1 256 87.5 256 C 87.1 256 86.3 255 85.6 253.7 C 84.7 252 84.6 251.9 85 253.5 C 86.1 257.1 86 257.4 83.8 257.8 C 80.7 258.3 80.8 255.6 84 252.5 C 86 250.4 90.5 249 90.5 250.5 Z  M 42.5 251.8 C 42.5 252.2 41.7 253.7 40.8 255 L 39.2 257.5 L 41.7 255.2 C 43.9 253.2 44.3 253.1 44.9 254.5 C 46.1 257.6 45.5 259 43.2 259 C 40.1 259 38.5 257.2 38.5 253.8 C 38.5 251.7 39 251 40.5 251 C 41.6 251 42.5 251.3 42.5 251.8 Z  M 50.5 252.9 C 50.5 253.4 49.8 254.3 49 255 C 48.2 255.7 47.5 256.8 47.5 257.4 C 47.5 258 48.5 257.2 49.7 255.6 C 51.7 253 51.9 252.9 52.6 254.6 C 54 258.1 53.6 259 50.5 259 C 48.1 259 47.2 258.4 46.5 256.4 C 45 252.6 45.2 252 48 252 C 49.4 252 50.5 252.4 50.5 252.9 Z  M 81.3 254.6 C 80.2 257 80 257.1 78.8 255.4 C 76.9 252.8 77.2 252 80 252 C 82.3 252 82.4 252.2 81.3 254.6 Z  M 108 255 C 107.6 256.2 106.7 257 105.7 256.8 C 103.2 256.3 103.2 254.4 105.7 253.3 C 108.5 252 108.9 252.3 108 255 Z  M 138.1 255.1 C 141.2 261.2 135.3 267.6 129.3 264.4 C 127.9 263.7 126.5 262.4 126.1 261.5 C 125.3 259.4 128.1 258.4 130 260 C 131.9 261.5 134.9 259.5 134 257.3 C 133.5 256 135 252 136 252 C 136.3 252 137.2 253.4 138.1 255.1 Z  M 57.5 253.4 C 57.5 253.7 57 255.1 56.4 256.7 C 55.4 259.3 55.2 259.4 54.5 257.5 C 53.1 254.2 53.4 253 55.5 253 C 56.6 253 57.5 253.2 57.5 253.4 Z  M 61.5 258.2 C 61.5 259.5 60.7 260 59 260 C 56.1 260 56.2 260.2 57.7 256 C 58.7 252.9 58.9 252.8 60.2 254.5 C 60.9 255.6 61.5 257.2 61.5 258.2 Z  M 67.1 253.8 C 67.7 254.2 68.7 255.4 69.3 256.5 C 70.4 258.3 70.5 258.2 69.9 255.7 C 69.3 253.3 69.6 253 71.9 253 C 73.3 253 74.5 253.4 74.5 254 C 74.5 256.1 70.4 259 67.5 259 C 64.8 259 64.5 258.8 65.5 257.1 C 66 256 66.5 254.8 66.5 254.3 C 66.4 253.9 65.7 254.8 64.8 256.5 C 63.6 258.6 63 259.1 62.7 258 C 62.4 257.2 61.8 255.7 61.3 254.7 C 60.6 253.3 60.9 253 63.2 253 C 64.7 253 66.5 253.4 67.1 253.8 Z  M 78.2 257.5 C 77.8 258.5 73.5 259.6 73.5 258.6 C 73.5 258.3 74 256.9 74.7 255.5 C 75.8 253 76 252.9 77.2 254.6 C 77.9 255.6 78.4 256.9 78.2 257.5 Z  M 199.4 254.7 C 201.1 255.7 202.5 256.8 202.5 257.2 C 202.5 258.5 188.8 266.9 176.7 272.9 L 164.5 279 L 160.4 276.9 C 158.1 275.8 156.7 274.5 157.1 274 C 157.6 273.6 161.8 271.6 166.5 269.5 C 175.8 265.5 187.4 259 191.8 255.3 C 195.2 252.5 195.5 252.5 199.4 254.7 Z  M 101.5 256.9 C 101.5 258.4 98.7 260.2 96.9 259.8 C 94.5 259.4 94 257.3 96.2 256.7 C 99.3 255.9 101.5 256 101.5 256.9 Z  M 91.5 259.4 C 91.5 261.4 88.8 263.3 87 262.6 C 86.2 262.3 85.5 261.4 85.5 260.6 C 85.5 259.3 86.4 258.9 90.8 258.1 C 91.2 258.1 91.5 258.6 91.5 259.4 Z  M 107.5 259.9 C 107.5 260.3 106.4 261.7 105 263 C 103.1 264.8 102.2 265.1 101.3 264.2 C 99.3 262.2 102.1 258.2 105.1 258.8 C 106.4 259 107.5 259.6 107.5 259.9 Z  M 208.4 259.7 C 210.1 260.7 211.5 261.8 211.5 262.2 C 211.5 264.3 193.7 275.2 181.7 280.5 C 175.9 283.1 175.2 283.2 171.4 282 C 169.2 281.2 167.2 280.4 167 280 C 166.8 279.7 172.6 276.4 179.8 272.7 C 187.1 269 195.3 264.2 198 262.1 C 203.8 257.5 204.3 257.4 208.4 259.7 Z  M 31.9 261.2 C 32.3 262.7 31.9 263.9 30.9 264.7 C 28.5 266.4 29.6 269.5 32.5 269.5 C 34 269.5 35.1 270.1 35.3 271.2 C 35.8 273.7 32.4 273.5 29 270.8 C 26.7 269 26.4 268.2 26.8 265.3 C 27.8 259.5 30.8 257.1 31.9 261.2 Z  M 41.5 261.2 C 41.4 265.4 36.3 266.3 35.7 262.2 C 35.4 260.3 35.8 260 38.4 260 C 40.2 260 41.5 260.5 41.5 261.2 Z  M 82.5 261 C 82.5 261.5 81.4 262.7 80 263.6 C 77.6 265.2 77.3 265.2 75.4 263.4 C 73.5 261.7 73.5 261.5 75.2 260.9 C 77.9 259.8 82.5 259.9 82.5 261 Z  M 97.3 262.6 C 97.5 262.7 96.7 263.8 95.5 265 C 93.8 266.7 93.1 266.9 92 266 C 90.8 265 90.8 264.5 92.2 262.4 C 93.5 260.4 94 260.2 95.4 261.2 C 96.3 261.9 97.2 262.5 97.3 262.6 Z  M 50.3 263.2 C 49.4 264.5 47.9 265.5 46.9 265.5 C 45.7 265.5 44.9 264.7 44.7 263.2 C 44.4 261.3 44.8 261 48.1 261 C 51.7 261 51.7 261.1 50.3 263.2 Z  M 60.5 262.5 C 60.5 264.2 57.6 265.9 55.8 265.3 C 55.1 265 54.5 264 54.5 262.9 C 54.5 261.5 55.2 261 57.5 261 C 59.5 261 60.5 261.5 60.5 262.5 Z  M 71.5 261.7 C 71.5 262.9 68.2 266 66.9 266 C 65.4 266 63.3 262.6 64.2 261.6 C 65 260.8 71.5 260.8 71.5 261.7 Z  M 114.5 263 C 115.1 264.1 116.3 265 117.1 265 C 118 265 118.9 264.1 119.2 263 C 120 260 124.5 260.3 124.5 263.3 C 124.5 266.4 121.8 270 119.4 270 C 117 270 111.5 264.8 111.5 262.6 C 111.5 260.4 113.2 260.6 114.5 263 Z  M 86.5 264.5 C 87.5 265.7 87.5 266.3 86.5 267.5 C 85.8 268.3 84.7 269 84 269 C 83.3 269 82.2 268.3 81.5 267.5 C 80.5 266.3 80.5 265.7 81.5 264.5 C 82.2 263.7 83.3 263 84 263 C 84.7 263 85.8 263.7 86.5 264.5 Z  M 217 264.2 C 218.5 264.9 219.4 266 219.3 266.9 C 218.8 269.4 205.8 278.7 196.2 283.4 L 187.4 287.8 L 182.5 286.2 C 179.7 285.3 177.5 284.4 177.6 284.1 C 177.6 283.8 182.9 280.9 189.4 277.8 C 195.9 274.7 203.8 270.1 207.1 267.6 C 213.8 262.5 213.6 262.6 217 264.2 Z  M 65.5 268.6 C 65.5 270.7 61.5 271.4 59.7 269.6 C 58.3 268.2 58.3 267.9 60 266 C 61.7 264.1 61.9 264.1 63.7 265.6 C 64.7 266.6 65.5 267.9 65.5 268.6 Z  M 77.4 266.7 C 78.3 267.3 75.1 270 73.6 270 C 70.6 270 69.3 267.9 71.1 265.9 C 72.7 264.1 72.9 264.2 77.4 266.7 Z  M 101.8 269.1 C 101 271.9 98.5 272.7 96.9 270.5 C 95.8 269.1 95.9 268.4 97.2 266.4 C 98.6 264.1 98.9 264.1 100.5 265.5 C 101.6 266.5 102.1 267.9 101.8 269.1 Z  M 107.9 271.9 C 107.7 272.1 106.9 271.7 106 271 C 104.2 269.5 104.1 266.8 105.8 265.1 C 106.8 264.1 107.1 264.6 107.6 267.7 C 108 269.8 108.1 271.7 107.9 271.9 Z  M 44.8 266.8 C 45.9 268 46.1 269 45.5 270 C 44.7 271.3 44.2 271.2 42.4 269.4 C 41.2 268.2 40.6 266.7 40.9 266.1 C 41.9 264.5 42.9 264.7 44.8 266.8 Z  M 54.5 266.5 C 56.9 269.4 52.4 272.5 49.7 269.8 C 48.8 268.9 48.9 268.2 50.2 266.8 C 52.2 264.6 52.9 264.6 54.5 266.5 Z  M 38.5 268 C 38.5 268.5 38.1 269 37.5 269 C 37 269 36.5 268.5 36.5 268 C 36.5 267.4 37 267 37.5 267 C 38.1 267 38.5 267.4 38.5 268 Z  M 93.4 268.6 C 94.3 269.4 91.5 274 90.1 274 C 87.6 274 86.2 271.4 87.7 269.1 C 88.8 267.2 91.6 267 93.4 268.6 Z  M 227.7 269.1 C 230.9 270.3 233.4 271.7 233.3 272.1 C 232.7 273.9 220.6 282.2 212.2 286.6 L 203.3 291.2 L 196.9 290 C 193.4 289.3 190.5 288.5 190.5 288.1 C 190.5 287.8 194.7 285.4 199.8 282.8 C 205.4 279.9 211.6 275.8 215.1 272.5 C 218.3 269.5 221.2 267.1 221.4 267 C 221.6 267 224.4 268 227.7 269.1 Z  M 83.5 272.6 C 83.5 274.7 79.6 276.4 77.9 274.9 C 76.1 273.4 76.1 272.1 78.2 269.8 C 79.7 268.1 79.9 268.1 81.7 269.6 C 82.7 270.6 83.5 271.9 83.5 272.6 Z  M 73.4 272.7 C 73.6 272.8 73.2 273.6 72.5 274.5 C 70.9 276.5 68.6 276.4 66.3 274.3 C 64.6 272.8 64.6 272.5 66.1 270.9 C 67.7 269.1 68.7 269.3 73.4 272.7 Z  M 43.5 275.2 C 43.5 277.5 42.3 277.5 40.1 275.1 C 39.2 274.1 38.7 272.6 39.1 271.6 C 39.7 270 39.9 270 41.6 271.6 C 42.7 272.5 43.5 274.1 43.5 275.2 Z  M 59.6 271.9 C 61.8 273.9 61.4 276 59.1 276 C 57.1 276 55.2 273.3 55.9 271.5 C 56.6 269.5 57.2 269.6 59.6 271.9 Z  M 52.5 274.6 C 52.5 276.3 51 277.1 49.2 276.4 C 47.4 275.8 46.2 273.2 47 271.9 C 47.8 270.7 52.5 273 52.5 274.6 Z  M 107.5 274.9 C 107.4 276.6 105.5 278.2 104.1 277.7 C 102.1 276.9 101.1 274.5 101.9 272.5 C 102.4 271.1 102.7 271.1 105 272.6 C 106.4 273.5 107.5 274.5 107.5 274.9 Z  M 267 273.7 C 266.7 275.3 265.3 278.4 263.9 280.7 C 261.7 284.6 260.8 285.1 253.3 287.5 C 248.9 288.9 245.1 289.9 244.9 289.7 C 244.7 289.6 246.2 287.4 248.1 285 C 250 282.6 252.6 278.9 253.7 276.8 C 255.4 273.8 256.6 272.9 259.4 272.4 C 261.4 272.1 263.5 271.7 264 271.5 C 266.9 270.5 267.7 271.1 267 273.7 Z  M 97.9 273.9 C 99.3 275.5 99.4 276.2 98.5 278 C 97.5 279.8 97.1 279.9 95.7 278.8 C 93 276.7 92.6 275.8 93.8 273.8 C 95.3 271.5 95.8 271.5 97.9 273.9 Z  M 244.4 273.5 C 245.1 274.3 236.9 282.5 231.2 286.7 C 228.6 288.6 226.6 290.5 226.9 290.7 C 227.7 291.5 239 282.4 243.3 277.5 C 246.6 273.7 247.8 273 250.9 273 L 254.6 273 L 252.4 277 C 251.1 279.3 248 283.4 245.5 286.2 L 241 291.2 L 232 291.7 C 222.6 292.2 207.2 292.1 206.7 291.5 C 206.5 291.3 208.7 289.9 211.7 288.4 C 218.7 284.9 229.6 277.6 232.6 274.4 C 234.7 272.1 235.6 271.9 239.4 272.4 C 241.9 272.7 244.1 273.2 244.4 273.5 Z  M 37.5 276.1 C 38.4 277.7 38.3 278.6 36.9 280.1 C 35.3 281.9 35.3 282.2 36.8 283.7 C 38 284.9 38.7 285.1 39.7 284.2 C 40.8 283.4 41.4 283.6 42.3 285 C 43.3 286.7 43.2 287 40.8 287.6 C 39.4 288 37.5 287.8 36.6 287.3 C 34.2 285.8 32.9 279.6 34.3 276.5 C 35.7 273.5 36.1 273.4 37.5 276.1 Z  M 87.6 275 C 89.8 276.2 90.1 279.2 88.2 280.8 C 86.8 282 85.8 281.5 83.7 278.8 C 82.6 277.4 82.6 276.8 83.7 275.6 C 85.3 273.7 85.2 273.8 87.6 275 Z  M 66.4 277.1 C 68.3 278.7 68.7 279.5 67.9 280.8 C 67.3 281.7 66.4 282.5 65.7 282.8 C 64.1 283.3 61.3 278.6 62.1 276.6 C 62.9 274.5 63.5 274.6 66.4 277.1 Z  M 78.4 276.9 C 80.1 278.2 80.6 279.2 80 280.8 C 79.2 283.6 76.8 283.6 73.8 280.8 C 71.7 278.8 71.6 278.5 73.2 276.8 C 75.2 274.6 75.4 274.6 78.4 276.9 Z  M 49.1 280.9 C 48 282.7 45.7 282.2 45 280 C 44 276.7 45.5 275.5 47.7 277.8 C 48.8 278.9 49.4 280.3 49.1 280.9 Z  M 57.8 277.6 C 59.8 278.4 60 280.3 58.1 281.9 C 56.2 283.5 52.1 280.2 53.1 277.7 C 53.4 276.7 54.3 276.2 54.9 276.5 C 55.5 276.8 56.8 277.3 57.8 277.6 Z  M 161.6 280.1 C 196.3 297.5 235.6 299.3 266.4 284.9 C 271 282.8 275 281.1 275.2 281.3 C 275.3 281.5 272.2 283.5 268.2 285.8 C 235.1 304.6 196.4 304.5 155.1 285.5 L 147.2 281.9 L 150 279 C 151.6 277.3 153 276 153.2 276 C 153.4 276 157.2 277.8 161.6 280.1 Z  M 111 280.7 C 111.8 283.4 109.5 283.9 107.5 281.5 C 106.5 280.3 106.5 279.7 107.5 278.5 C 109 276.7 109.9 277.4 111 280.7 Z  M 96.2 282.9 C 95.8 285.4 92.7 286.6 91 284.9 C 89.8 283.7 89.7 283 90.7 280.8 C 91.9 278.3 92 278.3 94.2 279.9 C 95.5 280.8 96.4 282.1 96.2 282.9 Z  M 104.5 281.4 C 104.5 282.2 103.8 283.3 102.9 284 C 101.7 285.1 101.1 285.1 99.9 283.8 C 98.6 282.5 98.5 281.9 99.6 280.2 C 100.6 278.6 101.3 278.4 102.7 279.1 C 103.7 279.6 104.5 280.7 104.5 281.4 Z  M 75.5 287.5 C 72 291.7 66 287.2 69 282.6 L 70.6 280.3 L 73.6 283.1 C 76.2 285.5 76.5 286.3 75.5 287.5 Z  M 56.5 285.7 C 56.5 287.3 53.3 287.4 51.7 285.8 C 51 285.1 50.5 283.8 50.5 282.8 C 50.5 281.2 50.7 281.2 53.5 282.8 C 55.1 283.7 56.5 285.1 56.5 285.7 Z  M 64.4 287.1 C 62.6 290.6 58.8 286.8 60.1 282.8 C 60.7 280.9 60.8 280.9 63.1 283.1 C 64.9 284.8 65.2 285.7 64.4 287.1 Z  M 84.9 282.5 C 87 284.1 86.5 286.7 83.9 287.7 C 83.1 288 81.7 287.6 80.8 286.8 C 79.6 285.5 79.5 284.9 80.7 283.1 C 82.2 280.6 82.4 280.6 84.9 282.5 Z  M 47.5 286.4 C 47.4 288.5 47.4 288.5 46 286.6 C 44.1 284.1 44.1 282.9 46 283.6 C 46.8 284 47.5 285.2 47.5 286.4 Z  M 108.8 284.2 C 110 284.9 111.1 285.6 111.3 285.7 C 112.2 286.1 109.3 290 108.1 290 C 106 290 104.3 287.3 105 285 C 105.7 282.6 105.8 282.6 108.8 284.2 Z  M 144.4 292.3 C 144.6 298.2 147.4 310.9 150 317.5 C 151.4 320.7 152.3 323.5 152.2 323.7 C 151.5 324.4 138.6 314.8 138.1 313.3 C 137 309.7 135.5 298.4 135.5 294 C 135.5 288.8 135.9 288 140 285.9 C 142.8 284.5 143 284.5 143.7 286.4 C 144 287.6 144.3 290.2 144.4 292.3 Z  M 149.7 285.6 C 152.7 287 153.2 287.9 154.7 294.3 C 157.2 304.8 164.6 318.7 171.7 326.5 C 175 330.1 177 333 176.3 333 C 174.6 333 162.4 328.9 158.2 326.9 C 153.1 324.6 147.2 309.1 145.9 295 C 145.6 291.4 145.2 287.5 144.9 286.2 C 144.4 283.6 145.3 283.5 149.7 285.6 Z  M 101.8 289.1 C 101 292.2 99.3 292.5 97.3 290 C 95.9 288.3 95.7 287.4 96.6 286.4 C 98.2 284.4 102.4 286.6 101.8 289.1 Z  M 93.5 289 C 93.5 290 92.8 291.6 91.9 292.5 C 90.4 294 90.1 294 88.4 292.4 C 86.3 290.5 86 288.9 87.6 287.3 C 89.2 285.7 93.5 286.9 93.5 289 Z  M 53.3 289.6 C 53.5 289.7 53.1 290.8 52.5 292 C 51.6 293.7 51.1 293.9 49.9 292.9 C 47.1 290.6 48.6 286.1 51.4 288.2 C 52.3 288.9 53.1 289.5 53.3 289.6 Z  M 61.3 293.6 C 59.8 295.1 59.6 295 58 292.6 C 57 291.2 56.6 289.3 56.9 288.3 C 57.5 286.8 57.9 287 60.3 289.3 C 62.7 291.8 62.8 292.1 61.3 293.6 Z  M 83.5 291.6 C 83.5 294 80.6 295.4 78 294.2 C 75.2 292.9 74.9 291.9 76.7 289.1 C 77.7 287.4 78 287.4 80.6 288.9 C 82.2 289.8 83.5 291 83.5 291.6 Z  M 115 290 C 117 293.8 116.9 295 114.6 295 C 111.5 295 110.2 292.7 111.6 289.6 C 112.3 288.2 113 287 113.1 287 C 113.3 287 114.1 288.3 115 290 Z  M 68.5 289.5 C 69.2 290.3 70.4 291 71.2 291 C 73.2 291 72.3 293.4 70.1 293.8 C 67.9 294.3 65.5 292.2 65.5 289.9 C 65.5 287.6 66.8 287.5 68.5 289.5 Z  M 135.9 309 L 136.6 313.5 L 131.6 308.3 C 126.5 303.2 126.5 303.1 126.5 296.8 L 126.5 290.4 L 130.3 289.4 L 134 288.5 L 134.6 296.5 C 134.9 300.9 135.5 306.5 135.9 309 Z  M 159 289.7 C 161.6 291 163.1 292.7 165 296.8 C 168.4 304.1 175 313.3 182 320.2 C 188.1 326.2 198.1 333.7 199 332.8 C 199.3 332.6 197.3 330.9 194.6 329.2 C 183.7 322.1 173.3 310.5 167.4 298.8 C 165.8 295.6 164.5 292.8 164.5 292.6 C 164.5 292.3 167.2 293 170.4 294.1 C 175.6 295.9 176.7 296.8 180 301.6 C 184.1 307.8 190.9 314.7 197.2 319.1 C 201.5 322.1 213.5 328.1 217.7 329.5 C 219.7 330.1 219.5 330.3 215.5 331.6 C 209.9 333.4 199.4 334.4 189.1 334.2 C 179.6 334 177.3 332.6 169.6 322.3 C 162.5 312.8 157.3 301.6 155 291.2 C 154.2 287.5 154.3 287.5 159 289.7 Z  M 45.6 294.1 C 44.5 295.9 44.6 296.5 45.9 297.8 C 47.1 299 47.7 299.1 48.9 298.1 C 50.1 297.1 50.6 297.2 51.4 298.9 C 53 301.8 52.8 302 49.4 302 C 45.1 302 42.9 300.5 41.6 296.9 C 40.7 294.3 40.8 293.2 42.1 291.2 C 43.6 289 43.8 288.9 45.3 290.4 C 46.7 291.8 46.8 292.3 45.6 294.1 Z  M 286.5 290.1 C 286.5 292.1 281.9 294.4 277 294.8 C 270.9 295.3 260.5 294.2 260.5 293.1 C 260.5 292.7 262 291.7 263.7 290.8 C 266 289.7 269.9 289.3 276.7 289.4 C 282.1 289.5 286.5 289.8 286.5 290.1 Z  M 108.5 294.7 C 108.5 297.3 107.3 298.2 105.1 297.4 C 103.3 296.7 101.9 292.7 102.9 291.2 C 104 289.4 108.5 292.3 108.5 294.7 Z  M 97.1 292.4 C 97.8 293.2 99 294 99.6 294.2 C 100.5 294.5 100.5 295.1 99.6 296.8 C 98.1 299.6 96 299.6 94.1 296.9 C 93 295.2 92.9 294.4 93.8 292.9 C 95.2 290.6 95.3 290.6 97.1 292.4 Z  M 125.5 296 C 125.5 298.7 125.3 301 125 301 C 124.5 301 118.5 292.4 118.5 291.6 C 118.5 291.3 120.1 291 122 291 L 125.5 291 L 125.5 296 Z  M 58.2 298 C 57.8 300.3 54.8 300.4 53.5 298.1 C 52.7 296.6 52.8 295.5 53.7 294 C 55 292 55 292 56.7 294.2 C 57.7 295.5 58.4 297.2 58.2 298 Z  M 66.7 294.7 C 69 296.7 69 299.6 66.8 300.5 C 64.1 301.5 61.2 297.5 62.8 294.9 C 64.2 292.6 64.4 292.6 66.7 294.7 Z  M 80.4 297.7 C 80.6 297.8 80.2 298.6 79.5 299.5 C 77.8 301.6 75.2 301.4 73.1 299.1 C 71.7 297.6 71.6 296.7 72.5 295.1 L 73.6 293 L 76.8 295.2 C 78.6 296.5 80.2 297.6 80.4 297.7 Z  M 88.3 294.6 C 91.8 296.3 92.1 297 90.3 298.8 C 87.5 301.6 82.8 298.9 84 295 C 84.8 292.6 84.5 292.6 88.3 294.6 Z  M 271.3 295.7 L 280.6 296.2 L 277.3 299.1 C 274.4 301.5 273.1 301.9 267.6 302 C 262.1 302 250.7 299.8 248.1 298.3 C 246.5 297.3 255.9 294.1 259 294.6 C 260.7 294.9 266.2 295.3 271.3 295.7 Z  M 116.4 297.6 C 117.2 298.3 114.1 301 112.4 301 C 110.2 301 109.1 299.4 109.9 297.4 C 110.3 296.4 111.2 296.1 113.2 296.6 C 114.8 297 116.2 297.4 116.4 297.6 Z  M 105.8 301.6 C 105.5 302.4 104.7 303 104 303 C 102.1 303 100.4 300.5 101.1 298.7 C 101.6 297.2 101.9 297.2 104 298.6 C 105.4 299.5 106.1 300.8 105.8 301.6 Z  M 186.8 299 C 190.3 299.7 193.4 301.6 198.5 305.9 C 207 313 217 318.4 228.5 322.1 C 233.3 323.6 236.3 325.1 235.5 325.4 C 234.7 325.7 231.4 326.9 228.2 328 L 222.4 329.9 L 215.7 327.4 C 201.7 322.2 185.6 309.8 180.1 300.1 C 178.3 296.9 178.3 296.8 180.1 297.4 C 181.2 297.7 184.1 298.4 186.8 299 Z  M 121.3 300.1 C 122.3 301.7 122.3 302.5 121.4 303.6 C 120.1 305.2 119.5 305.3 117.5 304 C 116.3 303.3 116.3 302.8 117.5 300.6 C 119.1 297.5 119.6 297.4 121.3 300.1 Z  M 250.1 300.1 C 253.3 301.2 259.6 302.4 264 302.8 L 272 303.5 L 267.5 306.8 C 263.4 309.8 262.6 310.1 258 309.5 C 248.6 308.3 232.5 302.7 234 301.2 C 234.4 300.8 236.8 300 239.3 299.4 C 241.9 298.7 244 298.2 244.1 298.1 C 244.1 298.1 246.8 298.9 250.1 300.1 Z  M 62.5 301 C 64.1 302.6 64.3 303.5 63.5 305 C 62.1 307.6 60.9 307.5 58.9 304.5 C 57.6 302.5 57.5 301.9 58.7 300.6 C 60.4 298.7 60.1 298.6 62.5 301 Z  M 74.5 305.4 C 74.5 309.1 71.4 309.6 68.7 306.4 L 66.4 303.8 L 68.5 301.5 C 70.6 299.2 70.7 299.2 72.6 301.1 C 73.6 302.1 74.5 304.1 74.5 305.4 Z  M 85 301 C 86.7 302.9 86.7 303.2 85.2 304.7 C 83.9 306.1 83.1 306.2 81 305.2 C 78.4 304 78.4 304 80.2 301.5 C 82.4 298.5 82.7 298.5 85 301 Z  M 95.8 300.4 C 97.9 302 97.9 302.4 95.9 304.4 C 93.9 306.4 93 306.4 91 304.4 C 89.5 302.9 89.5 302.6 91.1 300.9 C 93.1 298.7 93.4 298.6 95.8 300.4 Z  M 110 302 C 110.3 302.5 111.5 303 112.6 303 C 114.8 303 114.9 303.4 113.5 306.1 C 111.5 309.7 105.7 307.1 106.9 303.2 C 107.7 300.9 109 300.4 110 302 Z  M 216.4 305.6 C 224 311.5 232.1 314.6 247 317.6 C 250 318.2 250 318.2 244.4 321.1 L 238.7 323.9 L 231.9 322 C 219.1 318.5 203.8 310.3 197.5 303.5 L 195.1 300.9 L 203.5 301.6 C 211 302.2 212.5 302.7 216.4 305.6 Z  M 236.7 304.5 C 240.8 306.4 248.1 308.7 252.9 309.6 L 261.6 311.3 L 257 314.2 C 252.4 317.1 252.1 317.1 245.4 316.1 C 234.3 314.3 224.7 310.6 217.5 305.1 L 214 302.5 L 221 301.9 C 224.9 301.6 228.3 301.3 228.6 301.2 C 228.9 301.1 232.6 302.6 236.7 304.5 Z  M 55.3 306.2 C 55 309.2 55.3 309.5 57.7 309.5 C 61.9 309.6 63.5 311.7 60.1 312.6 C 55.9 313.6 53 310.2 53.4 304.7 C 53.4 303.8 54 303 54.6 303 C 55.2 303 55.5 304.4 55.3 306.2 Z  M 102.1 304.4 C 103.6 305.6 103.8 306.3 102.9 307.6 C 101.5 310 100.3 310.3 98.1 308.7 C 96.5 307.5 96.4 307.1 97.6 305.2 C 99.2 302.6 99.5 302.6 102.1 304.4 Z  M 93.5 309.2 C 93.5 310.8 88.3 311.3 86.8 309.8 C 85.6 308.5 85.5 307.9 86.6 306.2 L 87.9 304.2 L 90.7 306.3 C 92.2 307.4 93.5 308.7 93.5 309.2 Z  M 123.3 307.7 C 118.8 312.5 114.1 313 114.7 308.6 C 114.9 307 115.8 306.4 118.5 306.2 C 120.4 306 122.4 305.5 122.9 305 C 125 302.9 125.4 305.4 123.3 307.7 Z  M 70.1 310 C 71.9 310 71.6 313.1 69.9 313.7 C 69.2 313.9 67.4 313 65.9 311.7 C 63.4 309.6 63.2 309 64.4 307.6 C 65.7 306.1 65.9 306.1 67.2 308 C 68 309.1 69.3 310 70.1 310 Z  M 80.4 307.1 C 83.9 308.3 83.9 308.4 82.5 311.1 C 81.2 313.4 78.2 313.6 76.1 311.5 C 74.8 310.2 74.8 309.5 75.8 308 C 76.4 306.9 77 306 77.1 306 C 77.2 306 78.6 306.5 80.4 307.1 Z  M 110.3 310 C 112.4 310 111.6 312 109 313.2 C 106.9 314.1 106.1 314.1 104.9 312.8 C 103.6 311.5 103.5 310.8 104.5 309 C 105.6 307 105.8 307 107.4 308.4 C 108.4 309.3 109.7 310 110.3 310 Z  M 129.2 309.2 C 130.5 310.4 131.5 311.9 131.5 312.7 C 131.5 314.5 127.1 315.4 124.6 314.1 C 122.7 313 122.7 312.9 124.3 310 C 125.2 308.4 126.2 307 126.4 307 C 126.7 307 127.9 308 129.2 309.2 Z  M 99 311 C 101.2 311.8 101.4 312.3 100.5 314 C 99.3 316.3 96.7 316.6 94 314.6 C 92.4 313.4 92.3 313 93.4 311.6 C 95 309.7 95.5 309.7 99 311 Z  M 88.7 312.6 C 90.1 313.1 90.2 313.6 89.3 315.6 C 88 318.3 86.8 318.5 84.2 316.6 C 82.6 315.4 82.6 314.9 83.7 313.1 C 84.4 311.9 85.4 311.2 86 311.5 C 86.5 311.8 87.8 312.3 88.7 312.6 Z  M 79.4 315.7 C 80.1 316.2 77.3 319 76.1 319 C 75.5 319 74.2 318.3 73.2 317.6 C 71.7 316.4 71.6 315.8 72.5 314.1 C 73.5 312.1 73.7 312.1 76.3 313.7 C 77.8 314.6 79.2 315.5 79.4 315.7 Z  M 120.5 313.7 C 121.3 314.4 117.3 317 115.4 317 C 113.4 317 111.1 314.5 111.9 313.1 C 112.5 312.2 119.3 312.7 120.5 313.7 Z  M 66.3 317.7 C 65.4 318.8 65.5 319.5 66.8 320.7 C 68.3 322.2 68.6 322.2 70.3 320.7 C 72 319.2 72.4 319.1 73.4 320.4 C 75.8 323.3 71.7 325.2 67 323.4 C 64.7 322.5 62.3 317.3 63 314.9 C 63.6 313 63.8 312.9 65.6 314.6 C 67.1 315.9 67.2 316.6 66.3 317.7 Z  M 108.5 318.5 C 107.6 321 103.3 321.7 101.6 319.6 C 100.7 318.5 100.7 317.6 101.4 316.2 C 102.3 314.5 102.9 314.4 105.9 315.3 C 108.7 316.2 109.2 316.8 108.5 318.5 Z  M 136 315.6 C 139 317.6 139.2 318.7 136.4 319.5 C 133.6 320.4 130 317.3 131.6 315.3 C 133 313.7 133.1 313.7 136 315.6 Z  M 125.4 316.1 C 128.8 317.3 129.1 318 127.3 319.8 C 124.6 322.5 119.8 320 121.1 316.6 C 121.8 314.7 121.5 314.7 125.4 316.1 Z  M 95.8 317.7 C 97.8 318.3 97.6 319.9 95.3 321.4 C 94.2 322.1 92.9 322 91.1 321.2 C 88.8 320.2 88.6 319.8 89.7 318 C 90.5 316.8 91.6 316.2 92.5 316.6 C 93.3 316.9 94.8 317.5 95.8 317.7 Z  M 84 318.5 C 85.8 319.9 85.8 320.1 84.2 321.7 C 82.9 323.1 82.1 323.2 80 322.2 C 77.6 321.1 77.5 321 79.2 319.1 C 81.4 316.7 81.5 316.7 84 318.5 Z  M 117.5 320.1 C 117.5 320.5 116.8 321.6 115.9 322.4 C 114.2 324.2 111.7 324.4 109.6 323.1 C 108.5 322.4 108.6 321.8 109.9 319.7 C 111.4 317.5 111.9 317.3 114.5 318.3 C 116.2 318.9 117.5 319.8 117.5 320.1 Z  M 135.5 323.2 C 135.5 324.3 131.3 324.2 129.6 323.1 C 128.8 322.6 128.5 321.5 128.8 320.6 C 129.4 319.2 129.7 319.2 132.5 320.8 C 134.1 321.7 135.5 322.8 135.5 323.2 Z  M 143 320.9 C 143.3 321.4 143.1 322.1 142.6 322.4 C 141.4 323.2 138.5 322.1 138.5 320.9 C 138.5 319.7 142.2 319.7 143 320.9 Z  M 101 322 C 101.3 322.5 102.6 323 103.7 323 C 105.7 323 105.8 323.1 104 325 C 102 327.2 99.4 327.5 96.4 325.9 C 94.5 324.9 94.5 324.8 96.7 323 C 99.3 320.8 100.1 320.6 101 322 Z  M 122.9 322.4 L 126.8 323.7 L 124.1 325.5 C 121.6 327.2 117 327.8 115.9 326.7 C 115.6 326.4 116.1 325 117.2 323.6 C 118.2 322.2 119 321.1 119 321 C 119 321 120.8 321.6 122.9 322.4 Z  M 89.8 323.4 C 91.3 324.6 91.3 324.9 90.1 325.9 C 87.9 327.7 83.9 325.5 85.6 323.4 C 87 321.7 87.5 321.7 89.8 323.4 Z  M 79.2 326.8 C 79 328.9 79.5 329.6 81.3 329.8 C 82.5 330 83.5 329.7 83.5 329.1 C 83.5 328.5 84.2 328 85 328 C 87.2 328 86.8 330.8 84.4 332.1 C 82.6 333 81.8 332.8 79.6 331.3 C 76.7 329 75.2 322.5 77.9 323.6 C 78.7 323.9 79.3 325.3 79.2 326.8 Z  M 145.5 324.6 C 145.5 326.4 142.7 328.2 139.9 328.2 C 136.6 328.2 134.8 326.6 136.3 324.8 C 137.6 323.2 145.5 323.1 145.5 324.6 Z  M 110 325.4 C 111.6 326.6 111.7 327 110.6 328.4 C 109.4 329.8 102.5 330.8 102.5 329.5 C 102.5 328.9 106.9 324.2 107.6 324.1 C 107.9 324 109 324.6 110 325.4 Z  M 152 329 C 150.1 331.1 147.2 332 145.6 331 C 144.7 330.5 144.9 329.5 146.2 327.2 C 147.9 324.3 148 324.2 150.8 325.7 C 153.5 327.1 153.6 327.3 152 329 Z  M 133.4 326.6 C 134.4 327.6 129.9 331 127.6 331 C 124.6 331 121.4 329.1 123.1 328.4 C 123.7 328.1 125.1 327.3 126.1 326.5 C 127.8 325.2 132.1 325.3 133.4 326.6 Z  M 97.5 329.2 C 97.5 330.3 95.8 330.2 93.4 328.9 C 90.6 327.4 92.1 325.8 95 327.2 C 96.4 327.8 97.5 328.7 97.5 329.2 Z  M 119.5 329.7 C 120.6 330.7 115.9 333 112.8 333 C 108.9 333 108.7 332.5 111.8 330 C 113.8 328.3 117.8 328.2 119.5 329.7 Z  M 141.4 330.6 C 141.6 330.8 141.2 331.6 140.5 332.5 C 139.2 334.1 135.9 334.5 133 333.4 C 131.5 332.8 131.5 332.6 133.1 330.9 C 134.3 329.6 135.6 329.3 137.9 329.7 C 139.6 330 141.2 330.4 141.4 330.6 Z  M 158.9 329.6 C 159.8 329.9 160.2 330.6 159.9 331.1 C 159.1 332.5 157.8 332.2 157.1 330.5 C 156.5 328.8 156.7 328.7 158.9 329.6 Z  M 92 333 C 91.7 333.9 92.2 335.3 93.1 336.1 C 94.5 337.2 95 337.1 96.4 335.4 C 97.7 333.8 98.6 333.5 100.3 334.1 C 104.1 335.5 100.6 340 95.6 340 C 92.6 340 89.5 336.5 89.5 333 C 89.5 330.8 89.9 330.2 91 330.6 C 91.9 331 92.3 331.9 92 333 Z  M 106.5 333.2 C 106.5 333.5 104.9 333.3 103 332.7 C 101.1 332.1 99.5 331.4 99.5 331 C 99.5 330.6 101.1 330.8 103 331.4 C 104.9 332 106.5 332.8 106.5 333.2 Z  M 155.3 332.2 C 155.1 333.9 154.2 334.6 152 334.8 L 149 335.2 L 151.4 332.6 C 154.4 329.4 155.7 329.3 155.3 332.2 Z  M 125.6 332.4 L 128.9 333.8 L 125.7 335.4 C 123.3 336.7 122 336.8 120.5 336 C 119.4 335.4 118.5 334.7 118.5 334.3 C 118.5 333.9 121.4 331.2 122.1 331 C 122.2 331 123.8 331.6 125.6 332.4 Z  M 168.5 333.6 C 168.5 334.2 160.3 336.1 159.7 335.6 C 159.4 335.3 160 334.1 160.9 333.1 C 162.4 331.5 163.2 331.3 165.6 332.2 C 167.2 332.7 168.5 333.4 168.5 333.6 Z  M 147.4 333.6 C 147.7 333.9 147.2 334.8 146.3 335.7 C 145.2 336.8 143.8 337 142 336.6 C 139.3 335.9 139.3 335.9 141.1 334 C 142.8 332.4 145.8 332.2 147.4 333.6 Z  M 133.8 336.5 C 133.9 337.1 132.5 337.6 130.8 337.8 C 127.4 338.1 126.7 337.2 128.6 335.3 C 129.8 334.1 133.5 335 133.8 336.5 Z  M 157.5 336 C 157.5 336.5 157 337 156.4 337 C 155.9 337 155.7 336.5 156 336 C 156.3 335.4 156.8 335 157.1 335 C 157.3 335 157.5 335.4 157.5 336 Z  M 107.5 338 C 107.5 340.7 110.4 341.8 112 339.7 C 113.3 337.9 115.5 337.4 115.5 338.9 C 115.5 340.5 112.4 343 110.4 343 C 108.1 343 104.5 339.6 104.5 337.5 C 104.5 336.7 105.2 336 106 336 C 106.8 336 107.5 336.9 107.5 338 Z  M 155.5 340.4 C 155.5 343.5 154.2 345 151.4 345 C 148.5 345 144.4 340.9 146.6 340.1 C 147.2 339.9 148.3 340.7 149.1 341.8 C 150.8 344.3 153.5 343.7 153.5 340.9 C 153.5 339.9 154 339 154.5 339 C 155.1 339 155.5 339.6 155.5 340.4 Z  M 135.5 342 C 135.5 343.4 136.2 344 137.6 344 C 138.8 344 139.9 343.2 140.2 342 C 140.5 340.9 141.1 340 141.6 340 C 143.1 340 142.6 343.7 140.9 345.1 C 139.6 346.2 138.7 346.1 135.7 344.5 C 131.5 342.2 130.4 340 133.4 340 C 134.8 340 135.5 340.6 135.5 342 Z " fill="rgb(49,49,49)"/><path d=" M 77.5 171 C 76.7 172.4 76.7 173.6 77.5 175 C 79.8 179.4 85.4 180.1 92.4 177 C 98.6 174.2 104 174.4 107.2 177.6 C 108.6 179 110 179.9 110.3 179.5 C 110.6 179.2 109.7 177.8 108.3 176.4 C 104.7 172.7 98.8 172.2 92.6 174.9 C 86.7 177.4 82.2 177.6 80.4 175.4 C 79.3 174 79.4 173.6 80.9 172.5 C 81.9 171.7 82.4 170.7 82 170.1 C 81 168.4 78.7 168.8 77.5 171 Z " fill="rgb(49,49,49)"/><path d=" M 96.3 179.4 C 94.7 180.2 94 181.4 94 183.5 C 94 188.9 102.9 190.8 105.5 185.9 C 107.9 181.5 101.4 176.9 96.3 179.4 Z " fill="rgb(49,49,49)"/><path d=" M 128.8 268.2 C 132.6 271.4 132.4 276.3 128.4 276.8 C 125.1 277.2 123.7 274.4 126 272.1 C 127 271.1 127.5 271 127.5 271.8 C 127.5 272.5 128 273 128.6 273 C 129.4 273 129.4 272.5 128.5 271.5 C 126.7 269.4 125.6 269.6 124.3 272.5 C 123 275.5 124.6 278 127.9 278 C 130.8 278 132.5 276.2 132.5 273.1 C 132.5 269.8 131.6 268.6 128.5 267.1 C 126.2 265.9 126.2 266 128.8 268.2 Z " fill="rgb(49,49,49)"/><path d=" M 98.2 239.7 C 97.8 240 97.5 240.9 97.5 241.7 C 97.5 243.2 100.1 243.5 100.9 242.1 C 101.6 241 99.1 238.8 98.2 239.7 Z " fill="rgb(49,49,49)"/><path d=" M 34.2 242.6 C 33.3 243.6 34.4 245 36.1 245 C 36.9 245 37.5 244.3 37.5 243.5 C 37.5 242 35.4 241.4 34.2 242.6 Z " fill="rgb(49,49,49)"/><path d=" M 89.9 243.1 C 88.9 244.8 91.2 246.7 92.6 245.3 C 93.8 244.1 93 242 91.5 242 C 91 242 90.3 242.5 89.9 243.1 Z " fill="rgb(49,49,49)"/><path d=" M 41.9 245.1 C 40.9 246.8 43.2 248.7 44.6 247.3 C 45.8 246.1 45 244 43.5 244 C 43 244 42.3 244.5 41.9 245.1 Z " fill="rgb(49,49,49)"/><path d=" M 82.9 245.1 C 81.9 246.8 84.2 248.7 85.6 247.3 C 86.8 246.1 86 244 84.5 244 C 84 244 83.3 244.5 82.9 245.1 Z " fill="rgb(49,49,49)"/><path d=" M 50.6 246 C 49 246.9 50 249 52.1 249 C 53.6 249 54.1 246.5 52.7 245.6 C 52.3 245.4 51.3 245.5 50.6 246 Z " fill="rgb(49,49,49)"/><path d=" M 74.9 246.1 C 73.9 247.8 76.2 249.7 77.6 248.3 C 78.8 247.1 78 245 76.5 245 C 76 245 75.3 245.5 74.9 246.1 Z " fill="rgb(49,49,49)"/><path d=" M 59.1 246.7 C 57.9 247.9 58.5 250 60 250 C 60.8 250 61.5 249.4 61.5 248.6 C 61.5 246.9 60.1 245.8 59.1 246.7 Z " fill="rgb(49,49,49)"/><path d=" M 66.5 247.5 C 66.5 248.3 67.4 249 68.5 249 C 69.6 249 70.5 248.3 70.5 247.5 C 70.5 246.7 69.6 246 68.5 246 C 67.4 246 66.5 246.7 66.5 247.5 Z " fill="rgb(49,49,49)"/><path d=" M 157.1 20.5 C 150.9 22.7 146.3 27.1 142.5 34.5 L 139 41.3 L 139.1 58.9 C 139.1 75.2 139.3 77.2 141.8 85.4 C 143.3 90.3 145.9 97.4 147.6 101.3 C 149.2 105.1 150.3 108.5 150.1 108.7 C 149.9 109 148.6 108.6 147.3 107.9 C 146.1 107.2 142.3 106.6 138.9 106.6 C 122.5 106.6 111.7 123.8 117 141.6 C 121.9 158.2 140.3 163.2 151.9 151.1 L 154.7 148.2 L 150.1 148.7 C 144.4 149.4 140.4 147.8 136.5 143.3 C 134.3 140.8 133.5 138.9 133.5 136 C 133.5 128.6 142.2 121.9 149.8 123.5 C 155.8 124.8 163 129.2 168.6 135.1 C 178.4 145.3 183.9 158.5 183.8 172 L 183.8 179.6 L 189.2 182.1 L 194.6 184.6 L 195.1 182.4 C 196 178.7 193.7 160 191.1 150.7 C 187.7 138.5 184 129.3 177.9 117.6 C 166.8 96.7 157.6 77.3 156 71.5 C 153.8 63 153 45.9 154.5 38.7 C 156.4 29.6 163.1 23.4 170.1 24.2 C 176.8 24.9 180.1 37.5 175 42.5 C 172 45.6 168.1 45.7 166 42.8 C 164.6 40.7 164.6 40.4 166.6 38.9 C 169.2 37 168.6 34 165.6 34 C 161.5 34 160.3 40.2 163.6 44.4 C 165.2 46.5 166.5 47 169.9 47 C 184 47 182.9 24.9 168.6 20.1 C 164.3 18.7 161.9 18.8 157.1 20.5 Z  M 156.8 97.1 C 158.6 101.1 166 114.2 173.2 126.1 C 186.2 147.7 190.4 157.3 191.9 168 C 192.4 171.6 191.9 170.7 189.1 163.1 C 177.9 133 157.2 113.4 141.3 118.2 C 137.2 119.4 131.7 124 128.2 129 C 126.8 131 126.9 130.6 128.4 127.4 C 131 122 137.4 116.4 142.7 114.9 C 148.3 113.4 155.5 115 161.9 119.1 C 166.8 122.2 166.9 122 162.5 115.5 C 155.4 105 149.7 90 148.9 80 L 148.4 73.5 L 150.9 81.6 C 152.3 86 154.9 93 156.8 97.1 Z " fill="rgb(49,49,49)"/><path d=" M 122.1 58.9 C 119.4 61.9 120.2 73.8 123.5 80.4 C 126.1 85.6 134.7 95.6 139.5 99 L 142.3 101 L 139.4 94.2 C 137.9 90.4 135.5 82.1 134.1 75.6 C 130.6 58.9 126.8 53.7 122.1 58.9 Z " fill="rgb(49,49,49)"/><path d=" M 110.4 78.6 C 109.4 79.9 109.4 81 110.4 84.8 C 112.4 92.5 118.8 97.7 130 100.6 C 137.8 102.7 138.4 102.3 132.7 98.4 C 129.7 96.4 125.5 92.2 123 88.7 C 113.9 76 113.1 75.3 110.4 78.6 Z " fill="rgb(49,49,49)"/><path d=" M 115.6 103.3 C 112.5 104.8 111.7 107 114.2 107 C 115.2 107 118.5 106.2 121.4 105.1 C 125.9 103.5 126.3 103.2 124.3 102.7 C 120.8 101.7 118.3 101.9 115.6 103.3 Z " fill="rgb(49,49,49)"/><path d=" M 81.9 131.4 C 77.7 133.3 75.5 136.6 75.5 141.3 C 75.5 145.4 78.3 151.8 81.1 154.1 C 82.4 155.1 82.2 154.5 80.6 152.2 C 77.5 147.8 76.8 141.3 78.9 137.2 C 81.8 131.6 90.9 130.6 94.1 135.6 C 95.9 138.2 95.3 139.7 92.1 141.1 C 90.1 141.9 90.1 142 92.4 141.7 C 98 141.2 97.7 133.8 92 131.4 C 87.8 129.7 85.9 129.7 81.9 131.4 Z " fill="rgb(49,49,49)"/><path d=" M 167.4 184.7 C 160.8 188.1 157.5 192.7 157.5 198.4 C 157.5 207.8 167.8 214.7 173.5 209 C 176.9 205.6 175.1 198.8 171.3 200.3 C 170.4 200.7 170.6 200.9 171.7 200.9 C 174.5 201.1 175.1 205.1 172.5 207.2 C 169.5 209.7 167.2 209.5 164.2 206.4 C 154.1 196.4 169.7 180.9 184.8 185.9 C 189.5 187.5 195.1 193.8 196.6 199.2 C 199.8 211.3 193.2 226.5 182 232.3 C 180.4 233.2 179.5 233.9 180.1 234 C 180.6 234 183.2 232.7 185.8 231 C 199.7 222.2 203.7 202.1 194 189.3 C 188.2 181.8 177.1 179.9 167.4 184.7 Z " fill="rgb(49,49,49)"/><path d=" M 238.7 257.2 C 238 257.9 237.5 259.1 237.6 259.9 C 237.6 260.9 238 260.6 238.5 259.2 C 239.6 256.5 242.6 256.3 244.8 258.8 C 246.8 261 247 264.7 245.3 267 C 244.6 267.9 245 267.5 246.3 266.2 C 249.1 263.2 249.1 261.5 246 258.5 C 243.4 255.8 240.6 255.3 238.7 257.2 Z " fill="rgb(49,49,49)"/><path d=" M 140.7 81.6 Q 133.516 56.25 139 41.3 L 140.7 81.6 Z " fill="rgb(49,49,49)"/><path d=" M 137.6 46.125 Q 141.7 31.75 149.1 25.75 L 137.6 46.125 Z " fill="rgb(49,49,49)"/></g></g></g></svg>