<?xml version="1.0" encoding="UTF-8" standalone="no"?><!-- Generator: Gravit.io --><svg xmlns="http://www.w3.org/2000/svg" xmlns:xlink="http://www.w3.org/1999/xlink" style="isolation:isolate" viewBox="0 0 886 225" width="886pt" height="225pt"><defs><clipPath id="_clipPath_SUcAnCLaIucD7VJsbXZkSCOW56JXmNkQ"><rect width="886" height="225"/></clipPath></defs><g clip-path="url(#_clipPath_SUcAnCLaIucD7VJsbXZkSCOW56JXmNkQ)"><path d=" M 911.569 210.796 C 911.579 210.796 911.589 210.796 911.609 210.796 C 913.879 210.796 915.749 208.927 915.749 206.656 C 915.749 206.576 915.749 206.497 915.739 206.417 C 915.739 203.312 913.869 201.828 910.019 201.828 L 903.809 201.828 L 903.809 218.088 L 906.149 218.088 L 906.149 211 L 909.019 211 L 909.079 211.086 L 913.539 218.088 L 916.039 218.088 L 911.249 210.841 L 911.569 210.796 Z  M 908.859 209.167 L 906.149 209.167 L 906.149 203.671 L 909.589 203.671 C 911.359 203.671 913.379 203.96 913.379 206.283 C 913.379 208.954 911.339 209.167 908.849 209.167 M 1.461 33.009 L 35.943 33.009 L 35.943 158.615 L 99.782 158.615 L 99.782 190.437 L 1.461 190.437 L 1.461 33.009 Z  M 115.027 83.696 L 148.154 83.696 L 148.154 190.378 L 115.027 190.378 L 115.027 83.696 Z  M 131.59 30.659 C 142.131 30.661 150.804 39.335 150.804 49.876 C 150.804 60.418 142.129 69.093 131.587 69.093 C 121.045 69.093 112.37 60.418 112.37 49.876 C 112.37 39.334 121.045 30.659 131.587 30.659 C 131.588 30.659 131.589 30.659 131.59 30.659 Z  M 286.727 32.985 L 319.854 32.985 L 319.854 127.068 L 357.398 83.648 L 398.013 83.648 L 354.534 133.038 L 397.098 190.423 L 355.462 190.423 L 320.296 137.689 L 319.861 137.689 L 319.861 190.416 L 286.734 190.416 L 286.727 32.985 Z  M 166.522 83.707 L 198.334 83.707 L 198.334 98.286 L 198.786 98.286 C 205.251 87.209 217.336 80.57 230.153 81.053 C 263.746 81.053 269.929 103.155 269.929 131.868 L 269.929 190.371 L 236.802 190.371 L 236.802 138.504 C 236.802 126.123 236.575 110.208 219.549 110.208 C 202.33 110.208 199.673 123.69 199.673 137.603 L 199.673 190.358 L 166.546 190.358 L 166.522 83.707 Z  M 467.776 124.629 C 467.779 124.473 467.781 124.316 467.781 124.16 C 467.781 113.264 458.815 104.298 447.919 104.298 C 447.758 104.298 447.598 104.3 447.437 104.304 C 435.472 103.559 424.97 112.677 424.028 124.629 L 467.776 124.629 Z  M 495.837 171.903 C 484.696 185.413 468.046 193.214 450.536 193.129 C 417.409 193.129 390.887 171.016 390.887 136.775 C 390.887 102.534 417.406 80.432 450.536 80.432 C 481.499 80.432 500.916 102.516 500.916 136.775 L 500.916 147.162 L 424.028 147.162 C 425.998 159.286 436.713 168.2 448.993 167.932 C 458.564 167.872 467.477 162.957 472.634 154.895 L 495.837 171.903 Z  M 569.965 109.483 C 553.402 109.483 543.464 120.543 543.464 136.658 C 543.464 152.773 553.398 163.842 569.965 163.842 C 586.532 163.842 596.491 152.8 596.491 136.658 C 596.491 120.515 586.549 109.483 569.965 109.483 Z  M 626.988 190.358 L 596.491 190.358 L 596.491 176.21 L 596.039 176.21 C 588.289 186.633 576.093 192.854 563.105 193.008 C 531.276 193.008 510.309 170.036 510.309 137.551 C 510.309 107.717 528.864 80.321 559.364 80.321 C 573.074 80.321 585.88 84.072 593.392 94.469 L 593.827 94.469 L 593.827 32.974 L 626.984 32.974 L 626.988 190.358 Z  M 850.625 190.42 L 817.498 190.42 L 817.498 138.542 C 817.498 126.171 817.277 110.246 800.269 110.246 C 783.015 110.246 780.375 123.724 780.375 137.641 L 780.375 190.416 L 747.249 190.416 L 747.249 83.734 L 779.05 83.734 L 779.05 98.313 L 779.496 98.313 C 785.971 87.242 798.055 80.605 810.873 81.081 C 844.448 81.081 850.639 103.165 850.639 131.896 L 850.625 190.42 Z  M 709.871 69.151 C 709.869 69.151 709.868 69.151 709.867 69.151 C 699.321 69.151 690.643 60.474 690.643 49.928 C 690.643 39.382 699.321 30.704 709.867 30.704 C 720.412 30.704 729.089 39.38 729.091 49.924 C 729.091 49.925 729.091 49.926 729.091 49.928 C 729.091 60.472 720.415 69.15 709.871 69.151 Z  M 726.434 190.42 L 693.273 190.42 L 693.273 83.734 L 726.434 83.734 L 726.434 190.42 Z  M 867.139 -0.059 L 676.626 -0.059 C 667.683 -0.16 660.238 7.112 660.129 16.055 L 660.129 207.359 C 660.234 216.307 667.678 223.587 676.626 223.491 L 867.139 223.491 C 876.109 223.604 883.579 216.325 883.699 207.359 L 883.699 16.042 C 883.579 7.08 876.099 -0.191 867.139 -0.073 M 909.149 194.585 C 900.839 194.665 894.049 201.521 894.049 209.829 C 894.049 218.193 900.929 225.075 909.289 225.075 C 917.659 225.075 924.539 218.193 924.539 209.829 C 924.539 201.521 917.749 194.665 909.439 194.585 L 909.149 194.585 Z  M 909.149 223.329 C 909.069 223.33 908.999 223.331 908.919 223.331 C 901.589 223.331 895.559 217.297 895.559 209.963 C 895.559 202.63 901.589 196.595 908.919 196.595 C 916.169 196.595 922.169 202.492 922.289 209.74 L 922.289 209.965 C 922.439 217.138 916.669 223.167 909.499 223.322 L 909.149 223.322" fill-rule="evenodd" fill="rgb(49,49,49)"/></g></svg>