<?xml version="1.0" encoding="UTF-8" standalone="no"?><!-- Generator: Gravit.io --><svg xmlns="http://www.w3.org/2000/svg" xmlns:xlink="http://www.w3.org/1999/xlink" style="isolation:isolate" viewBox="0 0 950 250" width="950pt" height="250pt"><defs><clipPath id="_clipPath_WFkCFy2TJeWbCWBFdAfnP8CEe79DJV33"><rect width="950" height="250"/></clipPath></defs><g clip-path="url(#_clipPath_WFkCFy2TJeWbCWBFdAfnP8CEe79DJV33)"><path d="M 18.692 0 L 931.308 0 C 941.625 0 950 8.375 950 18.692 L 950 231.308 C 950 241.625 941.625 250 931.308 250 L 18.692 250 C 8.375 250 0 241.625 0 231.308 L 0 18.692 C 0 8.375 8.375 0 18.692 0 Z" style="stroke:none;fill:#0A66C2;stroke-miterlimit:10;"/><path d=" M 923.569 223.296 C 923.579 223.296 923.589 223.296 923.609 223.296 C 925.879 223.296 927.749 221.427 927.749 219.156 C 927.749 219.076 927.749 218.997 927.739 218.917 C 927.739 215.812 925.869 214.328 922.019 214.328 L 915.809 214.328 L 915.809 230.588 L 918.149 230.588 L 918.149 223.5 L 921.019 223.5 L 921.079 223.586 L 925.539 230.588 L 928.039 230.588 L 923.249 223.341 L 923.569 223.296 Z  M 920.859 221.667 L 918.149 221.667 L 918.149 216.171 L 921.589 216.171 C 923.359 216.171 925.379 216.46 925.379 218.783 C 925.379 221.454 923.339 221.667 920.849 221.667 M 13.461 45.509 L 47.943 45.509 L 47.943 171.115 L 111.782 171.115 L 111.782 202.937 L 13.461 202.937 L 13.461 45.509 Z  M 127.027 96.196 L 160.154 96.196 L 160.154 202.878 L 127.027 202.878 L 127.027 96.196 Z  M 143.59 43.159 C 154.131 43.161 162.804 51.835 162.804 62.376 C 162.804 72.918 154.129 81.593 143.587 81.593 C 133.045 81.593 124.37 72.918 124.37 62.376 C 124.37 51.834 133.045 43.159 143.587 43.159 C 143.588 43.159 143.589 43.159 143.59 43.159 Z  M 298.727 45.485 L 331.854 45.485 L 331.854 139.568 L 369.398 96.148 L 410.013 96.148 L 366.534 145.538 L 409.098 202.923 L 367.462 202.923 L 332.296 150.189 L 331.861 150.189 L 331.861 202.916 L 298.734 202.916 L 298.727 45.485 Z  M 178.522 96.207 L 210.334 96.207 L 210.334 110.786 L 210.786 110.786 C 217.251 99.709 229.336 93.07 242.153 93.553 C 275.746 93.553 281.929 115.655 281.929 144.368 L 281.929 202.871 L 248.802 202.871 L 248.802 151.004 C 248.802 138.623 248.575 122.708 231.549 122.708 C 214.33 122.708 211.673 136.19 211.673 150.103 L 211.673 202.858 L 178.546 202.858 L 178.522 96.207 Z  M 479.776 137.129 C 479.779 136.973 479.781 136.816 479.781 136.66 C 479.781 125.764 470.815 116.798 459.919 116.798 C 459.758 116.798 459.598 116.8 459.437 116.804 C 447.472 116.059 436.97 125.177 436.028 137.129 L 479.776 137.129 Z  M 507.837 184.403 C 496.696 197.913 480.046 205.714 462.536 205.629 C 429.409 205.629 402.887 183.516 402.887 149.275 C 402.887 115.034 429.406 92.932 462.536 92.932 C 493.499 92.932 512.916 115.016 512.916 149.275 L 512.916 159.662 L 436.028 159.662 C 437.998 171.786 448.713 180.7 460.993 180.432 C 470.564 180.372 479.477 175.457 484.634 167.395 L 507.837 184.403 Z  M 581.965 121.983 C 565.402 121.983 555.464 133.043 555.464 149.158 C 555.464 165.273 565.398 176.342 581.965 176.342 C 598.532 176.342 608.491 165.3 608.491 149.158 C 608.491 133.015 598.549 121.983 581.965 121.983 Z  M 638.988 202.858 L 608.491 202.858 L 608.491 188.71 L 608.039 188.71 C 600.289 199.133 588.093 205.354 575.105 205.508 C 543.276 205.508 522.309 182.536 522.309 150.051 C 522.309 120.217 540.864 92.821 571.364 92.821 C 585.074 92.821 597.88 96.572 605.392 106.969 L 605.827 106.969 L 605.827 45.474 L 638.984 45.474 L 638.988 202.858 Z  M 862.625 202.92 L 829.498 202.92 L 829.498 151.042 C 829.498 138.671 829.277 122.746 812.269 122.746 C 795.015 122.746 792.375 136.224 792.375 150.141 L 792.375 202.916 L 759.249 202.916 L 759.249 96.234 L 791.05 96.234 L 791.05 110.813 L 791.496 110.813 C 797.971 99.742 810.055 93.105 822.873 93.581 C 856.448 93.581 862.639 115.665 862.639 144.396 L 862.625 202.92 Z  M 721.871 81.651 C 721.869 81.651 721.868 81.651 721.867 81.651 C 711.321 81.651 702.643 72.974 702.643 62.428 C 702.643 51.882 711.321 43.204 721.867 43.204 C 732.412 43.204 741.089 51.88 741.091 62.424 C 741.091 62.425 741.091 62.426 741.091 62.428 C 741.091 72.972 732.415 81.65 721.871 81.651 Z  M 738.434 202.92 L 705.273 202.92 L 705.273 96.234 L 738.434 96.234 L 738.434 202.92 Z  M 879.139 12.441 L 688.626 12.441 C 679.683 12.34 672.238 19.612 672.129 28.555 L 672.129 219.859 C 672.234 228.807 679.678 236.087 688.626 235.991 L 879.139 235.991 C 888.109 236.104 895.579 228.825 895.699 219.859 L 895.699 28.542 C 895.579 19.58 888.099 12.309 879.139 12.427 M 921.149 207.085 C 912.839 207.165 906.049 214.021 906.049 222.329 C 906.049 230.693 912.929 237.575 921.289 237.575 C 929.659 237.575 936.539 230.693 936.539 222.329 C 936.539 214.021 929.749 207.165 921.439 207.085 L 921.149 207.085 Z  M 921.149 235.829 C 921.069 235.83 920.999 235.831 920.919 235.831 C 913.589 235.831 907.559 229.797 907.559 222.463 C 907.559 215.13 913.589 209.095 920.919 209.095 C 928.169 209.095 934.169 214.992 934.289 222.24 L 934.289 222.465 C 934.439 229.638 928.669 235.667 921.499 235.822 L 921.149 235.822" fill-rule="evenodd" fill="rgb(255,255,255)"/></g></svg>