<?xml version="1.0" encoding="UTF-8" standalone="no"?><!-- Generator: Gravit.io --><svg xmlns="http://www.w3.org/2000/svg" xmlns:xlink="http://www.w3.org/1999/xlink" style="isolation:isolate" viewBox="0 0 3707 1000" width="3707pt" height="1000pt"><defs><clipPath id="_clipPath_BZVV56yyLUlHE8ox9ScUjwaYZx14lppH"><rect width="3707" height="1000"/></clipPath></defs><g clip-path="url(#_clipPath_BZVV56yyLUlHE8ox9ScUjwaYZx14lppH)"><clipPath id="_clipPath_AH920XN9qSPPEXZdrSGbPEXbCspYs0DX"><rect x="0" y="0" width="3707" height="1000" transform="matrix(1,0,0,1,0,0)" fill="rgb(255,255,255)"/></clipPath><g clip-path="url(#_clipPath_AH920XN9qSPPEXZdrSGbPEXbCspYs0DX)"><g><clipPath id="_clipPath_anhbuJdqhbGCto9okI7u4YcgHlmkCt3x"><rect x="1180" y="27.85" width="2098" height="944.3" transform="matrix(1,0,0,1,0,0)" fill="rgb(255,255,255)"/></clipPath><g clip-path="url(#_clipPath_anhbuJdqhbGCto9okI7u4YcgHlmkCt3x)"><g><path d=" M 1194.7 293.85 L 1194.7 278.45 L 1446.7 278.45 L 1446.7 293.85 L 1372.5 293.85 L 1372.5 753.05 L 1397.7 753.05 L 1397.7 753.05 Q 1457.2 753.05 1492.55 716.65 L 1492.55 716.65 L 1492.55 716.65 Q 1527.9 680.25 1564.3 604.65 L 1564.3 604.65 L 1579 604.65 L 1565.7 768.45 L 1194.7 768.45 L 1194.7 753.05 L 1236 753.05 L 1236 293.85 L 1194.7 293.85 L 1194.7 293.85 Z  M 1707.1 386.95 L 1707.1 386.95 L 1707.1 386.95 Q 1670 386.95 1654.25 368.05 L 1654.25 368.05 L 1654.25 368.05 Q 1638.5 349.15 1638.5 321.15 L 1638.5 321.15 L 1638.5 321.15 Q 1638.5 293.15 1655.65 274.95 L 1655.65 274.95 L 1655.65 274.95 Q 1672.8 256.75 1707.8 256.75 L 1707.8 256.75 L 1707.8 256.75 Q 1742.8 256.75 1761 273.2 L 1761 273.2 L 1761 273.2 Q 1779.2 289.65 1779.2 320.1 L 1779.2 320.1 L 1779.2 320.1 Q 1779.2 350.55 1761.7 368.75 L 1761.7 368.75 L 1761.7 368.75 Q 1744.2 386.95 1707.1 386.95 Z  M 1601.4 447.85 L 1601.4 435.25 L 1772.9 435.25 L 1772.9 755.85 L 1812.1 755.85 L 1812.1 768.45 L 1604.2 768.45 L 1604.2 755.85 L 1642.7 755.85 L 1642.7 447.85 L 1601.4 447.85 L 1601.4 447.85 Z  M 1826.1 447.85 L 1826.1 435.25 L 1994.8 435.25 L 1994.8 499.65 L 1994.8 499.65 Q 2017.9 428.25 2096.65 428.25 L 2096.65 428.25 L 2096.65 428.25 Q 2175.4 428.25 2192.2 503.85 L 2192.2 503.85 L 2192.2 503.85 Q 2216.7 428.25 2295.1 428.25 L 2295.1 428.25 L 2295.1 428.25 Q 2398 428.25 2398 545.15 L 2398 545.15 L 2398 755.85 L 2437.2 755.85 L 2437.2 768.45 L 2243.3 768.45 L 2243.3 755.85 L 2267.8 755.85 L 2267.8 528.35 L 2267.8 528.35 Q 2267.8 475.15 2258.7 466.05 L 2258.7 466.05 L 2258.7 466.05 Q 2254.5 461.85 2247.5 461.85 L 2247.5 461.85 L 2247.5 461.85 Q 2227.2 461.85 2211.8 489.15 L 2211.8 489.15 L 2211.8 489.15 Q 2196.4 516.45 2196.4 558.45 L 2196.4 558.45 L 2196.4 755.85 L 2221.6 755.85 L 2221.6 768.45 L 2041.7 768.45 L 2041.7 755.85 L 2066.2 755.85 L 2066.2 528.35 L 2066.2 528.35 Q 2066.2 475.15 2057.1 466.05 L 2057.1 466.05 L 2057.1 466.05 Q 2052.9 461.85 2045.9 461.85 L 2045.9 461.85 L 2045.9 461.85 Q 2026.3 461.85 2010.55 491.6 L 2010.55 491.6 L 2010.55 491.6 Q 1994.8 521.35 1994.8 562.65 L 1994.8 562.65 L 1994.8 755.85 L 2020 755.85 L 2020 768.45 L 1826.1 768.45 L 1826.1 755.85 L 1864.6 755.85 L 1864.6 447.85 L 1826.1 447.85 L 1826.1 447.85 Z  M 2703.2 580.15 L 2703.2 580.15 Q 2703.2 508.05 2696.2 483.2 L 2696.2 483.2 L 2696.2 483.2 Q 2689.2 458.35 2668.9 458.35 L 2668.9 458.35 L 2668.9 458.35 Q 2648.6 458.35 2632.5 483.55 L 2632.5 483.55 L 2632.5 483.55 Q 2616.4 508.75 2616.4 552.85 L 2616.4 552.85 L 2616.4 683.05 L 2616.4 683.05 Q 2616.4 713.15 2628.65 734.15 L 2628.65 734.15 L 2628.65 734.15 Q 2640.9 755.15 2663.65 755.15 L 2663.65 755.15 L 2663.65 755.15 Q 2686.4 755.15 2694.8 724.35 L 2694.8 724.35 L 2694.8 724.35 Q 2703.2 693.55 2703.2 616.55 L 2703.2 616.55 L 2703.2 580.15 L 2703.2 580.15 Z  M 2447.7 243.45 L 2616.4 243.45 L 2616.4 488.45 L 2616.4 488.45 Q 2643 428.25 2707.4 428.25 L 2707.4 428.25 L 2707.4 428.25 Q 2838.3 428.25 2838.3 602.55 L 2838.3 602.55 L 2838.3 602.55 Q 2838.3 691.45 2802.25 733.45 L 2802.25 733.45 L 2802.25 733.45 Q 2766.2 775.45 2694.1 775.45 L 2694.1 775.45 L 2694.1 775.45 Q 2657.7 775.45 2638.45 764.25 L 2638.45 764.25 L 2638.45 764.25 Q 2619.2 753.05 2612.2 727.15 L 2612.2 727.15 L 2607.3 768.45 L 2447.7 768.45 L 2447.7 755.85 L 2486.2 755.85 L 2486.2 256.05 L 2447.7 256.05 L 2447.7 243.45 L 2447.7 243.45 Z  M 3268.8 755.85 L 3268.8 768.45 L 3109.2 768.45 L 3101.5 717.35 L 3101.5 717.35 Q 3090.3 745.35 3068.25 760.4 L 3068.25 760.4 L 3068.25 760.4 Q 3046.2 775.45 3002.8 775.45 L 3002.8 775.45 L 3002.8 775.45 Q 2894.3 775.45 2894.3 658.55 L 2894.3 658.55 L 2894.3 447.85 L 2855.1 447.85 L 2855.1 435.25 L 3024.5 435.25 L 3024.5 675.35 L 3024.5 675.35 Q 3024.5 717.35 3030.45 730.65 L 3030.45 730.65 L 3030.45 730.65 Q 3036.4 743.95 3054.25 743.95 L 3054.25 743.95 L 3054.25 743.95 Q 3072.1 743.95 3086.1 722.25 L 3086.1 722.25 L 3086.1 722.25 Q 3100.1 700.55 3100.1 662.05 L 3100.1 662.05 L 3100.1 447.85 L 3067.9 447.85 L 3067.9 435.25 L 3230.3 435.25 L 3230.3 755.85 L 3268.8 755.85 L 3268.8 755.85 Z " fill-rule="evenodd" fill="rgb(255,255,255)"/></g></g><clipPath id="_clipPath_vtqWzFDxlqm06NSjoib5HJLWs9dpbYkd"><rect x="0" y="0" width="1000" height="1000" transform="matrix(1,0,0,1,0,0)" fill="rgb(255,255,255)"/></clipPath><g clip-path="url(#_clipPath_vtqWzFDxlqm06NSjoib5HJLWs9dpbYkd)"><g><g><g><g><path d=" M 332.758 45.455 L 332.758 87.265 L 354.245 87.265 L 364.697 87.265 L 374.569 87.265 L 395.474 88.427 L 405.927 90.749 L 425.671 101.202 L 433.801 109.332 L 440.189 118.914 L 446.577 139.529 L 447.447 149.982 L 447.738 170.887 L 447.738 191.792 L 447.738 233.603 L 447.738 547.184 L 311.853 547.184 L 301.4 536.731 L 301.4 233.603 L 311.853 223.15 L 353.664 223.15 L 353.664 191.792 L 113.251 191.792 L 113.251 223.15 L 155.062 223.15 L 165.515 233.603 L 165.515 536.731 L 155.062 547.184 L 113.251 547.184 L 113.251 588.995 L 876.299 588.995 L 876.299 567.508 L 876.589 547.184 L 877.169 536.731 L 880.364 515.826 L 882.686 505.373 L 885.881 484.468 L 886.461 474.015 L 886.751 453.691 L 886.751 432.204 L 844.94 432.204 L 841.457 447.883 L 838.262 453.691 L 826.939 474.015 L 819.679 484.177 L 802.259 503.051 L 792.386 511.47 L 771.772 525.117 L 761.319 530.344 L 740.413 537.893 L 729.961 540.506 L 719.508 543.119 L 698.603 546.313 L 688.15 546.894 L 677.697 547.184 L 656.792 547.184 L 604.528 547.184 L 604.528 97.718 L 614.981 87.265 L 688.15 87.265 L 688.15 45.455 L 332.758 45.455 L 332.758 45.455 Z  M 447.738 609.9 L 447.738 714.427 L 447.738 735.333 L 447.738 745.785 L 446.867 766.691 L 443.382 787.596 L 436.995 808.502 L 427.703 829.407 L 421.606 839.86 L 413.767 850.312 L 405.056 860.475 L 385.022 878.476 L 364.116 890.962 L 353.664 895.027 L 343.211 898.22 L 332.758 900.253 L 311.853 901.415 L 301.4 900.253 L 280.495 895.318 L 259.589 887.768 L 238.974 876.444 L 220.392 859.894 L 212.552 850.022 L 202.099 829.988 L 199.777 824.181 L 196.873 808.502 L 228.812 808.502 L 249.137 808.502 L 270.042 807.631 L 290.657 803.275 L 300.529 798.63 L 309.24 792.823 L 317.079 784.983 L 327.532 766.4 L 330.145 756.238 L 332.468 735.333 L 331.887 714.427 L 327.532 693.522 L 317.079 673.487 L 300.529 656.937 L 290.657 650.84 L 270.042 641.549 L 249.137 635.451 L 238.684 634 L 228.231 634 L 217.778 635.451 L 207.326 638.064 L 186.711 645.614 L 167.838 656.937 L 151.868 673.487 L 144.9 683.36 L 133.286 703.975 L 128.931 714.427 L 124.575 735.333 L 123.995 745.785 L 123.704 756.238 L 124.575 777.144 L 128.06 798.049 L 130.963 808.502 L 138.513 829.407 L 149.836 850.312 L 157.675 860.765 L 176.258 881.671 L 196.873 901.705 L 217.778 918.255 L 228.231 924.352 L 238.684 929.578 L 249.137 933.643 L 270.042 940.322 L 280.495 942.935 L 301.4 948.161 L 311.853 950.774 L 332.758 953.969 L 343.211 954.549 L 364.116 953.969 L 385.022 950.774 L 395.474 948.452 L 416.38 944.968 L 426.832 943.806 L 447.738 939.451 L 458.191 935.677 L 479.096 927.256 L 489.549 922.9 L 510.454 912.158 L 531.069 898.22 L 540.941 889.801 L 549.942 880.8 L 565.912 860.765 L 572.88 850.312 L 579.267 839.86 L 588.849 818.954 L 591.753 808.502 L 594.076 798.049 L 598.141 777.144 L 600.463 766.691 L 603.658 745.785 L 604.528 724.88 L 604.528 714.427 L 604.528 693.522 L 604.528 609.9 L 447.738 609.9 L 447.738 609.9 Z " fill="rgb(255,255,255)"/></g><g><path d=" M 875.051 433.492 L 875.051 589.002 L 886.749 589.002 L 886.749 433.492 L 875.051 433.492 L 875.051 433.492 Z " fill="rgb(255,255,255)"/></g></g><path d=" M 350 954 Q 601 946 604 724 Q 607 502 560 836 L 350 954 L 350 954 Z " fill="rgb(255,255,255)"/><path d=" M 196 808 Q 207.5 875.5 291 899 C 374.5 922.5 431.5 828.5 435 814 C 438.5 799.5 444 794.5 449 757 Q 454 719.5 465 852 L 390 905 L 294 919 Q 162.5 884.5 196 808 Z " fill="rgb(255,255,255)"/></g></g></g></g></g></g></svg>