<?xml version="1.0" standalone="yes"?>
<svg xmlns="http://www.w3.org/2000/svg" width="98" height="107">
<path style="fill:#313131; stroke:none;" d="M33 12L33 16L34.6713 16.0008L37.044 16.0586L38.0201 16.1481L39.9429 16.6034L41.6821 17.6034L42.3966 18.3179L43.3966 20.0586L43.6821 21.0193L43.8519 22.0046L43.9807 24L43.9992 26L44 30L44 60L38.9753 59.9992L36.9992 59.9807L36.0046 59.9414L34.0586 59.6821L33.1481 59.3966L31.6034 58.3966C30.7005 57.4937 30.2878 56.2228 30.1481 54.9807C29.9624 53.3283 30.0034 51.6599 30 50L30 43L30.0008 38L30.0193 36.0008L30.1481 34.0193C30.2832 33.0835 30.4931 32.1318 31.0031 31.3179L32.1574 30.0293L32.9884 29.5903L33.3904 29.3426L35 29L35 26L12 26L12 29L13.6096 29.3426L14.8426 30.0293L15.9969 31.3179L16.4012 32.1481C16.9015 33.3562 16.9374 34.7152 16.9807 36.0008C17.0256 37.3322 16.9994 38.6681 17 40L17 47L16.9992 51L16.9807 52.9992L16.8519 54.9807C16.7168 55.9165 16.5068 56.8682 15.9969 57.6821L14.8426 58.9707L14.0116 59.4097L13.6096 59.6574L12 60L12 64L85 64C85.0139 62.3204 85.0055 60.6493 85.1698 58.9753C85.3324 57.3176 85.6676 55.6824 85.8302 54.0247C85.9945 52.3507 85.9861 50.6796 86 49L82 49L81.4437 50.6705L81.1721 51.1551L80.6759 52.1458L79.4267 53.9306L77.811 55.6582L76.9059 56.4313L75.9599 57.1211L74.9853 57.7215L72.9992 58.6559L72 59.0069C71.0126 59.2906 70.0213 59.5611 69 59.696L67 59.9097C65.681 59.9793 64.3652 59.9905 63.0448 59.9992L59 60L59 31L59 26L59.0193 23.0008C59.0881 21.422 59.1184 19.6877 60.0278 18.3179L60.6019 17.6034L62.1235 16.6034L63.8588 16.1481L65.3295 16.0201L67 16L67 12L33 12M44 66L43.9992 76C43.9911 77.6635 44.0241 79.3459 43.8148 81L43.4668 83L42.8519 85L42.4275 85.9992L41.2971 87.9815C39.7428 90.2398 37.5898 92.1397 34.9992 93.1026C32.412 94.0643 29.5465 93.8477 27.0039 92.8511C25.2754 92.1736 23.6904 91.1802 22.4344 89.8002L21.1852 88.1165L20.7199 87.1435L20.4715 86.6674L20 85C21.9976 84.9987 24.0078 85.053 26.0008 84.8912C27.2955 84.7861 28.6491 84.5074 29.7716 83.821L31.2577 82.5664L31.821 81.7716L32.2569 80.8912L32.7562 78.9846L32.8472 77L32.5625 75.0154L31.821 73.108L31.2577 72.2245L29.7716 70.7029L27.956 69.5764L26.9846 69.1628L24.9992 68.6265L24 68.5147L23.0008 68.5147L22.0039 68.6265L20.0401 69.1628L18.1852 70.0903L16.5332 71.419L15.804 72.2245L15.1481 73.108L14.0895 75.0154C13.2511 76.8998 13.0036 78.9543 13.1088 81C13.2343 83.4397 13.8772 85.8711 15.0895 88L16.419 89.9961L17.2245 90.9846L18.108 91.956L20.0154 93.7755L21.0039 94.581L23 95.9113C24.5592 96.8066 26.2752 97.3648 28 97.8403C29.9528 98.3786 31.969 98.8104 34 98.8704L36 98.8156L37 98.7099L39 98.409L41 98.0656C42.0023 97.8751 43.0237 97.7068 44 97.402L46 96.7284L47.9992 95.8611L49.9853 94.7863L51.9066 93.4429L52.8148 92.6597L53.6705 91.8117L55.196 89.9599C56.0805 88.7391 56.8048 87.4108 57.3364 86C57.8245 84.7047 58.1015 83.351 58.3804 82C58.6523 80.6828 58.8164 79.3407 58.9105 78C59.0271 76.3382 58.9973 74.6662 59 73.0015L59 66L44 66z"/>
</svg>
