<svg version="1.2" xmlns="http://www.w3.org/2000/svg" viewBox="0 0 3152 904" width="3152" height="904">
	<title>lj-lojo-white-svg</title>
	<defs>
		<clipPath clipPathUnits="userSpaceOnUse" id="cp1">
			<path d="m-73-62h3707v1000h-3707z"/>
		</clipPath>
		<clipPath clipPathUnits="userSpaceOnUse" id="cp2">
			<path d="m-73-62h3707v1000h-3707z"/>
		</clipPath>
		<clipPath clipPathUnits="userSpaceOnUse" id="cp3">
			<path d="m1107-34.15h2098v944.3h-2098z"/>
		</clipPath>
		<clipPath clipPathUnits="userSpaceOnUse" id="cp4">
			<path d="m-73-62h1000v1000h-1000z"/>
		</clipPath>
	</defs>
	<style>
		.s0 { fill: #ffffff } 
	</style>
	<g id="Clip-Path" clip-path="url(#cp1)">
		<g id="Layer">
			<g id="Clip-Path" clip-path="url(#cp2)">
				<g id="Layer">
					<g id="Layer">
						<g id="Clip-Path" clip-path="url(#cp3)">
							<g id="Layer">
								<g id="Layer">
									<path id="Layer" fill-rule="evenodd" class="s0" d="m1083.7 243.9v-15.5h252v15.5h-74.2v459.1h25.2q59.5 0 94.9-36.4 35.3-36.4 71.7-112h14.7l-13.3 163.9h-371v-15.5h41.3v-459.2zm512.4 93.2q-37.1-0.1-52.8-19-15.8-18.9-15.8-46.9 0-28 17.2-46.2 17.1-18.2 52.1-18.2 35 0 53.2 16.5 18.2 16.4 18.2 46.9 0 30.4-17.5 48.6-17.5 18.2-54.6 18.2zm-105.7 60.9v-12.6h171.5v320.6h39.2v12.6h-207.9v-12.6h38.5v-308zm224.7 0v-12.6h168.7v64.4q23.1-71.4 101.8-71.4 78.8 0 95.6 75.6 24.5-75.6 102.9-75.6 102.9 0 102.9 116.9v210.7h39.2v12.6h-193.9v-12.6h24.5v-227.5q0-53.2-9.1-62.3-4.2-4.2-11.2-4.2-20.3 0.1-35.7 27.3-15.4 27.3-15.4 69.3v197.4h25.2v12.6h-179.9v-12.6h24.5v-227.5q0-53.2-9.1-62.3-4.2-4.2-11.2-4.2-19.6 0-35.3 29.8-15.8 29.7-15.8 71v193.2h25.2v12.6h-193.9v-12.6h38.5v-308zm621.6-204.4h168.7v245q26.6-60.2 91-60.2 130.9 0 130.9 174.3 0 88.9-36.1 130.9-36 42.1-108.1 42-36.4 0-55.7-11.2-19.2-11.2-26.2-37.1l-4.9 41.3h-159.6v-12.6h38.5v-499.8h-38.5zm255.5 336.7q0-72.1-7-96.9-7-24.8-27.3-24.8-20.3 0-36.4 25.1-16.1 25.3-16.1 69.4v130.1q0 30.1 12.2 51.1 12.3 21 35 21 22.8 0 31.2-30.7 8.4-30.9 8.4-107.9zm565.6 175.8v12.5h-159.6l-7.7-51.1q-11.2 28-33.3 43.1-22 15-65.4 15-108.5 0-108.5-116.9v-210.7h-39.2v-12.6h169.4v240.1q0 42 5.9 55.3 6 13.3 23.8 13.3 17.9 0 31.9-21.7 14-21.7 14-60.2v-214.2h-32.2v-12.6h162.4v320.6z"/>
								</g>
							</g>
						</g>
						<g id="Clip-Path" clip-path="url(#cp4)">
							<g id="Layer">
								<g id="Layer">
									<g id="Layer">
										<g id="Layer">
											<g id="Layer">
												<path id="Layer" class="s0" d="m577.2-4.5v41.8h-73.2l-10.5 10.4v449.5h52.3 20.9l10.5-0.3 10.4-0.6 20.9-3.2 10.5-2.6 10.4-2.6 20.9-7.6 10.5-5.2 20.6-13.6 9.9-8.4 17.4-18.9 7.2-10.2 11.4-20.3 3.2-5.8 3.4-15.7h41.9v21.5l-0.3 20.3-0.6 10.5-3.2 20.9-2.3 10.4-3.2 20.9-0.6 10.5-0.3 20.3v21.5h-763v-41.8h41.8l10.4-10.5v-303.1l-10.4-10.5h-41.8v-31.3h240.4v31.3h-41.8l-10.5 10.5v303.1l10.5 10.5h135.8v-313.6-41.8-20.9l-0.3-20.9-0.8-10.5-6.4-20.6-6.4-9.6-8.1-8.1-19.8-10.5-10.4-2.3-20.9-1.1h-9.9-10.5-21.4v-41.8zm-83.7 564.4v83.6 20.9 10.5l-0.8 20.9-3.2 20.9-2.4 10.4-4 20.9-2.3 10.5-2.9 10.5-9.6 20.9-6.4 10.4-7 10.5-16 20-9 9-9.8 8.4-20.6 14-20.9 10.7-10.5 4.4-20.9 8.4-10.5 3.8-20.9 4.3-10.4 1.2-20.9 3.5-10.5 2.3-20.9 3.2-20.9 0.5-10.4-0.5-20.9-3.2-10.5-2.6-20.9-5.3-10.5-2.6-20.9-6.7-10.4-4-10.5-5.2-10.4-6.1-20.9-16.6-20.6-20-18.6-20.9-7.9-10.5-11.3-20.9-7.5-20.9-2.9-10.5-3.5-20.9-0.9-20.9 0.3-10.4 0.6-10.5 4.3-20.9 4.4-10.4 11.6-20.6 7-9.9 15.9-16.6 18.9-11.3 20.6-7.5 10.5-2.6 10.4-1.5h10.5l10.4 1.5 20.9 6 20.7 9.3 9.8 6.1 16.6 16.6 10.4 20 4.4 20.9 0.6 20.9-2.3 20.9-2.7 10.2-10.4 18.6-7.9 7.8-8.7 5.8-9.8 4.7-20.7 4.3-20.9 0.9h-20.3-31.9l2.9 15.7 2.3 5.8 10.5 20 7.8 9.9 18.6 16.5 20.6 11.4 20.9 7.5 20.9 5 10.5 1.1 20.9-1.1 10.4-2.1 10.5-3.2 10.4-4 20.9-12.5 20.1-18 8.7-10.2 7.8-10.4 6.1-10.5 9.3-20.9 6.4-20.9 3.5-20.9 0.8-20.9v-10.5-20.9-104.5z"/>
											</g>
											<g id="Layer">
												<path id="Layer" class="s0" d="m775.7 383.5v155.5h-11.6v-155.5z"/>
											</g>
										</g>
										<path id="Layer" class="s0" d="m239 904q251-8 254-230 3-222-44 112z"/>
										<path id="Layer" class="s0" d="m85 758q11.5 67.5 95 91c83.5 23.5 140.5-70.5 144-85 3.5-14.5 9-19.5 14-57q5-37.5 16 95l-75 53-96 14q-131.5-34.5-98-111z"/>
									</g>
								</g>
							</g>
						</g>
					</g>
				</g>
			</g>
		</g>
	</g>
</svg>