<?xml version="1.0" encoding="UTF-8" standalone="no"?><!-- Generator: Gravit.io --><svg xmlns="http://www.w3.org/2000/svg" xmlns:xlink="http://www.w3.org/1999/xlink" style="isolation:isolate" viewBox="0 0 1000 1000" width="1000pt" height="1000pt"><defs><clipPath id="_clipPath_ztdQS9qYChGlilnkbCXM3TuLol8UpY4c"><rect width="1000" height="1000"/></clipPath></defs><g clip-path="url(#_clipPath_ztdQS9qYChGlilnkbCXM3TuLol8UpY4c)"><g><g><path d=" M 332.758 45.455 L 332.758 87.265 L 354.245 87.265 L 364.697 87.265 L 374.569 87.265 L 395.474 88.427 L 405.927 90.749 L 425.671 101.202 L 433.801 109.332 L 440.189 118.914 L 446.577 139.529 L 447.447 149.982 L 447.738 170.887 L 447.738 191.792 L 447.738 233.603 L 447.738 547.184 L 311.853 547.184 L 301.4 536.731 L 301.4 233.603 L 311.853 223.15 L 353.664 223.15 L 353.664 191.792 L 113.251 191.792 L 113.251 223.15 L 155.062 223.15 L 165.515 233.603 L 165.515 536.731 L 155.062 547.184 L 113.251 547.184 L 113.251 588.995 L 876.299 588.995 L 876.299 567.508 L 876.589 547.184 L 877.169 536.731 L 880.364 515.826 L 882.686 505.373 L 885.881 484.468 L 886.461 474.015 L 886.751 453.691 L 886.751 432.204 L 844.94 432.204 L 841.457 447.883 L 838.262 453.691 L 826.939 474.015 L 819.679 484.177 L 802.259 503.051 L 792.386 511.47 L 771.772 525.117 L 761.319 530.344 L 740.413 537.893 L 729.961 540.506 L 719.508 543.119 L 698.603 546.313 L 688.15 546.894 L 677.697 547.184 L 656.792 547.184 L 604.528 547.184 L 604.528 97.718 L 614.981 87.265 L 688.15 87.265 L 688.15 45.455 L 332.758 45.455 Z  M 447.738 609.9 L 447.738 714.427 L 447.738 735.333 L 447.738 745.785 L 446.867 766.691 L 443.382 787.596 L 436.995 808.502 L 427.703 829.407 L 421.606 839.86 L 413.767 850.312 L 405.056 860.475 L 385.022 878.476 L 364.116 890.962 L 353.664 895.027 L 343.211 898.22 L 332.758 900.253 L 311.853 901.415 L 301.4 900.253 L 280.495 895.318 L 259.589 887.768 L 238.974 876.444 L 220.392 859.894 L 212.552 850.022 L 202.099 829.988 L 199.777 824.181 L 196.873 808.502 L 228.812 808.502 L 249.137 808.502 L 270.042 807.631 L 290.657 803.275 L 300.529 798.63 L 309.24 792.823 L 317.079 784.983 L 327.532 766.4 L 330.145 756.238 L 332.468 735.333 L 331.887 714.427 L 327.532 693.522 L 317.079 673.487 L 300.529 656.937 L 290.657 650.84 L 270.042 641.549 L 249.137 635.451 L 238.684 634 L 228.231 634 L 217.778 635.451 L 207.326 638.064 L 186.711 645.614 L 167.838 656.937 L 151.868 673.487 L 144.9 683.36 L 133.286 703.975 L 128.931 714.427 L 124.575 735.333 L 123.995 745.785 L 123.704 756.238 L 124.575 777.144 L 128.06 798.049 L 130.963 808.502 L 138.513 829.407 L 149.836 850.312 L 157.675 860.765 L 176.258 881.671 L 196.873 901.705 L 217.778 918.255 L 228.231 924.352 L 238.684 929.578 L 249.137 933.643 L 270.042 940.322 L 280.495 942.935 L 301.4 948.161 L 311.853 950.774 L 332.758 953.969 L 343.211 954.549 L 364.116 953.969 L 385.022 950.774 L 395.474 948.452 L 416.38 944.968 L 426.832 943.806 L 447.738 939.451 L 458.191 935.677 L 479.096 927.256 L 489.549 922.9 L 510.454 912.158 L 531.069 898.22 L 540.941 889.801 L 549.942 880.8 L 565.912 860.765 L 572.88 850.312 L 579.267 839.86 L 588.849 818.954 L 591.753 808.502 L 594.076 798.049 L 598.141 777.144 L 600.463 766.691 L 603.658 745.785 L 604.528 724.88 L 604.528 714.427 L 604.528 693.522 L 604.528 609.9 L 447.738 609.9 Z " fill="rgb(49,49,49)"/></g><g><path d=" M 875.051 433.492 L 875.051 589.002 L 886.749 589.002 L 886.749 433.492 L 875.051 433.492 Z " fill="rgb(49,49,49)"/></g></g><path d=" M 350 954 Q 601 946 604 724 Q 607 502 560 836 L 350 954 Z " fill="rgb(49,49,49)"/><path d=" M 196 808 Q 207.5 875.5 291 899 C 374.5 922.5 431.5 828.5 435 814 C 438.5 799.5 444 794.5 449 757 Q 454 719.5 465 852 L 390 905 L 294 919 Q 162.5 884.5 196 808 Z " fill="rgb(49,49,49)"/></g></svg>