<?xml version="1.0" encoding="UTF-8" standalone="no"?><!-- Generator: Gravit.io --><svg xmlns="http://www.w3.org/2000/svg" xmlns:xlink="http://www.w3.org/1999/xlink" style="isolation:isolate" viewBox="0 0 777 912" width="777pt" height="912pt"><defs><clipPath id="_clipPath_CjGG9kZOmFomf6T6prMu8fgIIdfu8HUv"><rect width="777" height="912"/></clipPath></defs><g clip-path="url(#_clipPath_CjGG9kZOmFomf6T6prMu8fgIIdfu8HUv)"><clipPath id="_clipPath_mCGEtnlSbNQSp5xlVfbGHAfMBkAIoAPh"><rect x="-111.5" y="-44" width="1000" height="1000" transform="matrix(1,0,0,1,0,0)" fill="rgb(255,255,255)"/></clipPath><g clip-path="url(#_clipPath_mCGEtnlSbNQSp5xlVfbGHAfMBkAIoAPh)"><g><g><g><path d=" M 221.258 1.455 L 221.258 43.265 L 242.745 43.265 L 253.197 43.265 L 263.069 43.265 L 283.974 44.427 L 294.427 46.749 L 314.171 57.202 L 322.301 65.332 L 328.689 74.914 L 335.077 95.529 L 335.947 105.982 L 336.238 126.887 L 336.238 147.792 L 336.238 189.603 L 336.238 503.184 L 200.353 503.184 L 189.9 492.731 L 189.9 189.603 L 200.353 179.15 L 242.164 179.15 L 242.164 147.792 L 1.751 147.792 L 1.751 179.15 L 43.562 179.15 L 54.015 189.603 L 54.015 492.731 L 43.562 503.184 L 1.751 503.184 L 1.751 544.995 L 764.799 544.995 L 764.799 523.508 L 765.089 503.184 L 765.669 492.731 L 768.864 471.826 L 771.186 461.373 L 774.381 440.468 L 774.961 430.015 L 775.251 409.691 L 775.251 388.204 L 733.44 388.204 L 729.957 403.883 L 726.762 409.691 L 715.439 430.015 L 708.179 440.177 L 690.759 459.051 L 680.886 467.47 L 660.272 481.117 L 649.819 486.344 L 628.913 493.893 L 618.461 496.506 L 608.008 499.119 L 587.103 502.313 L 576.65 502.894 L 566.197 503.184 L 545.292 503.184 L 493.028 503.184 L 493.028 53.718 L 503.481 43.265 L 576.65 43.265 L 576.65 1.455 L 221.258 1.455 Z  M 336.238 565.9 L 336.238 670.427 L 336.238 691.333 L 336.238 701.785 L 335.367 722.691 L 331.882 743.596 L 325.495 764.502 L 316.203 785.407 L 310.106 795.86 L 302.267 806.312 L 293.556 816.475 L 273.522 834.476 L 252.616 846.962 L 242.164 851.027 L 231.711 854.22 L 221.258 856.253 L 200.353 857.415 L 189.9 856.253 L 168.995 851.318 L 148.089 843.768 L 127.474 832.444 L 108.892 815.894 L 101.052 806.022 L 90.599 785.988 L 88.277 780.181 L 85.373 764.502 L 117.312 764.502 L 137.637 764.502 L 158.542 763.631 L 179.157 759.275 L 189.029 754.63 L 197.74 748.823 L 205.579 740.983 L 216.032 722.4 L 218.645 712.238 L 220.968 691.333 L 220.387 670.427 L 216.032 649.522 L 205.579 629.487 L 189.029 612.937 L 179.157 606.84 L 158.542 597.549 L 137.637 591.451 L 127.184 590 L 116.731 590 L 106.278 591.451 L 95.826 594.064 L 75.211 601.614 L 56.338 612.937 L 40.368 629.487 L 33.4 639.36 L 21.786 659.975 L 17.431 670.427 L 13.075 691.333 L 12.495 701.785 L 12.204 712.238 L 13.075 733.144 L 16.56 754.049 L 19.463 764.502 L 27.013 785.407 L 38.336 806.312 L 46.175 816.765 L 64.758 837.671 L 85.373 857.705 L 106.278 874.255 L 116.731 880.352 L 127.184 885.578 L 137.637 889.643 L 158.542 896.322 L 168.995 898.935 L 189.9 904.161 L 200.353 906.774 L 221.258 909.969 L 231.711 910.549 L 252.616 909.969 L 273.522 906.774 L 283.974 904.452 L 304.88 900.968 L 315.332 899.806 L 336.238 895.451 L 346.691 891.677 L 367.596 883.256 L 378.049 878.9 L 398.954 868.158 L 419.569 854.22 L 429.441 845.801 L 438.442 836.8 L 454.412 816.765 L 461.38 806.312 L 467.767 795.86 L 477.349 774.954 L 480.253 764.502 L 482.576 754.049 L 486.641 733.144 L 488.963 722.691 L 492.158 701.785 L 493.028 680.88 L 493.028 670.427 L 493.028 649.522 L 493.028 565.9 L 336.238 565.9 Z " fill="rgb(49,49,49)"/></g><g><path d=" M 763.551 389.492 L 763.551 545.002 L 775.249 545.002 L 775.249 389.492 L 763.551 389.492 Z " fill="rgb(49,49,49)"/></g></g><path d=" M 238.5 910 Q 489.5 902 492.5 680 Q 495.5 458 448.5 792 L 238.5 910 Z " fill="rgb(49,49,49)"/><path d=" M 84.5 764 Q 96 831.5 179.5 855 C 263 878.5 320 784.5 323.5 770 C 327 755.5 332.5 750.5 337.5 713 Q 342.5 675.5 353.5 808 L 278.5 861 L 182.5 875 Q 51 840.5 84.5 764 Z " fill="rgb(49,49,49)"/></g></g></g></svg>