<svg version="1.2" xmlns="http://www.w3.org/2000/svg" viewBox="0 0 777 900" width="777" height="900">
	<title>lj-lojo-svg</title>
	<defs>
		<clipPath clipPathUnits="userSpaceOnUse" id="cp1">
			<path d="m0 0h777v912h-777z"/>
		</clipPath>
		<clipPath clipPathUnits="userSpaceOnUse" id="cp2">
			<path d="m-111.5-44h1000v1000h-1000z"/>
		</clipPath>
	</defs>
	<style>
		.s0 { fill: #ffffff } 
	</style>
	<g id="Clip-Path" clip-path="url(#cp1)">
		<g id="Layer">
			<g id="Clip-Path" clip-path="url(#cp2)">
				<g id="Layer">
					<g id="Layer">
						<g id="Layer">
							<g id="Layer">
								<path id="Layer" class="s0" d="m576.6 1.5v41.8h-73.1l-10.5 10.4v449.5h52.3 20.9l10.4-0.3 10.5-0.6 20.9-3.2 10.5-2.6 10.4-2.6 20.9-7.6 10.5-5.2 20.6-13.6 9.9-8.4 17.4-18.9 7.2-10.2 11.4-20.3 3.2-5.8 3.4-15.7h41.9v21.5l-0.3 20.3-0.6 10.5-3.2 20.9-2.3 10.4-3.2 20.9-0.6 10.5-0.3 20.3v21.5h-763v-41.8h41.8l10.4-10.5v-303.1l-10.4-10.4h-41.8v-31.4h240.4v31.4h-41.8l-10.5 10.4v303.1l10.5 10.5h135.8v-313.6-41.8-20.9l-0.3-20.9-0.8-10.5-6.4-20.6-6.4-9.6-8.1-8.1-19.8-10.5-10.4-2.3-20.9-1.1h-9.9-10.5-21.4v-41.8zm-83.7 564.4v83.6 20.9 10.5l-0.8 20.9-3.2 20.9-2.4 10.4-4 20.9-2.3 10.5-2.9 10.5-9.6 20.9-6.4 10.4-7 10.5-16 20-9 9-9.8 8.4-20.6 14-20.9 10.7-10.5 4.4-20.9 8.4-10.5 3.8-20.9 4.3-10.4 1.2-20.9 3.5-10.5 2.3-20.9 3.2-20.9 0.5-10.4-0.5-20.9-3.2-10.5-2.6-20.9-5.3-10.5-2.6-20.9-6.7-10.4-4-10.5-5.2-10.4-6.1-20.9-16.6-20.6-20-18.6-20.9-7.9-10.5-11.3-20.9-7.5-20.9-2.9-10.5-3.5-20.9-0.9-20.9 0.3-10.4 0.6-10.5 4.3-20.9 4.4-10.4 11.6-20.6 7-9.9 15.9-16.6 18.9-11.3 20.6-7.5 10.5-2.6 10.4-1.5h10.5l10.4 1.5 20.9 6 20.7 9.3 9.8 6.1 16.6 16.6 10.4 20 4.4 20.9 0.6 20.9-2.3 20.9-2.7 10.2-10.4 18.6-7.9 7.8-8.7 5.8-9.8 4.7-20.7 4.3-20.9 0.9h-20.3-31.9l2.9 15.7 2.3 5.8 10.5 20 7.8 9.9 18.6 16.5 20.6 11.4 20.9 7.5 20.9 5 10.5 1.1 20.9-1.1 10.4-2.1 10.5-3.2 10.4-4 20.9-12.5 20.1-18 8.7-10.2 7.8-10.4 6.1-10.5 9.3-20.9 6.4-20.9 3.5-20.9 0.8-20.9v-10.5-20.9-104.5z"/>
							</g>
							<g id="Layer">
								<path id="Layer" class="s0" d="m776.2 389.5v155.5h-11.6v-155.5z"/>
							</g>
						</g>
						<path id="Layer" class="s0" d="m238.5 910q251-8 254-230 3-222-44 112z"/>
						<path id="Layer" class="s0" d="m84.5 764q11.5 67.5 95 91c83.5 23.5 140.5-70.5 144-85 3.5-14.5 9-19.5 14-57q5-37.5 16 95l-75 53-96 14q-131.5-34.5-98-111z"/>
					</g>
				</g>
			</g>
		</g>
	</g>
</svg>